<?xml version="1.0" encoding="UTF-8" standalone="no"?>
<svg width="291px" height="55px" viewBox="0 0 291 55" version="1.1" xmlns="http://www.w3.org/2000/svg" xmlns:xlink="http://www.w3.org/1999/xlink">
    <!-- Generator: Sketch 3.8.2 (29753) - http://www.bohemiancoding.com/sketch -->
    <title>Group Copy</title>
    <desc>Created with Sketch.</desc>
    <defs></defs>
    <g id="web" stroke="none" stroke-width="1" fill="none" fill-rule="evenodd">
        <g id="Sujetos-Obligados" transform="translate(-70.000000, -42.000000)" fill="#FFFFFF">
            <g id="Group-Copy" transform="translate(71.000000, 43.000000)">
                <path d="M0.8,3.55271368e-15 C0.3,3.55271368e-15 0,0.3 0,0.8 C0,1.3 0.3,1.6 0.8,1.6 C1.3,1.6 1.6,1.3 1.6,0.8 C1.6,0.3 1.2,3.55271368e-15 0.8,3.55271368e-15 L0.8,3.55271368e-15 L0.8,3.55271368e-15 Z M4.1,3.55271368e-15 C3.6,3.55271368e-15 3.3,0.3 3.3,0.8 C3.3,1.3 3.6,1.6 4.1,1.6 C4.5,1.6 4.9,1.3 4.9,0.8 C4.8,0.3 4.5,3.55271368e-15 4.1,3.55271368e-15 L4.1,3.55271368e-15 L4.1,3.55271368e-15 Z M7.3,3.55271368e-15 C6.8,3.55271368e-15 6.5,0.3 6.5,0.8 C6.5,1.3 6.9,1.6 7.3,1.6 C7.7,1.6 8.1,1.3 8.1,0.8 C8.1,0.3 7.7,3.55271368e-15 7.3,3.55271368e-15 L7.3,3.55271368e-15 L7.3,3.55271368e-15 Z M23.4,3.1 C22.9,3.1 22.6,3.4 22.6,3.9 C22.6,4.4 23,4.7 23.4,4.7 C23.9,4.7 24.2,4.3 24.2,3.9 C24.2,3.5 23.9,3.1 23.4,3.1 L23.4,3.1 L23.4,3.1 Z M0.8,3.2 C0.3,3.2 0,3.6 0,4 C0,4.4 0.3,4.8 0.8,4.8 C1.3,4.8 1.6,4.4 1.6,4 C1.6,3.5 1.2,3.2 0.8,3.2 L0.8,3.2 L0.8,3.2 Z M4.1,3.2 C3.6,3.2 3.3,3.6 3.3,4 C3.3,4.4 3.6,4.8 4.1,4.8 C4.5,4.8 4.9,4.4 4.9,4 C4.8,3.5 4.5,3.2 4.1,3.2 L4.1,3.2 L4.1,3.2 Z M7.3,3.2 C6.8,3.2 6.5,3.6 6.5,4 C6.5,4.4 6.9,4.8 7.3,4.8 C7.7,4.8 8.1,4.4 8.1,4 C8.1,3.5 7.7,3.2 7.3,3.2 L7.3,3.2 L7.3,3.2 Z M10.5,3.2 C10.1,3.2 9.7,3.6 9.7,4 C9.7,4.4 10.1,4.8 10.5,4.8 C11,4.8 11.3,4.4 11.3,4 C11.3,3.5 10.9,3.2 10.5,3.2 L10.5,3.2 L10.5,3.2 Z M13.7,3.2 C13.2,3.2 12.9,3.6 12.9,4 C12.9,4.4 13.2,4.8 13.7,4.8 C14.2,4.8 14.5,4.4 14.5,4 C14.5,3.5 14.2,3.2 13.7,3.2 L13.7,3.2 L13.7,3.2 Z M17,3.2 C16.5,3.2 16.2,3.6 16.2,4 C16.2,4.4 16.6,4.8 17,4.8 C17.4,4.8 17.8,4.4 17.8,4 C17.8,3.5 17.4,3.2 17,3.2 L17,3.2 L17,3.2 Z M20.2,3.2 C19.8,3.2 19.4,3.6 19.4,4 C19.4,4.4 19.8,4.8 20.2,4.8 C20.7,4.8 21,4.4 21,4 C21,3.5 20.6,3.2 20.2,3.2 L20.2,3.2 L20.2,3.2 Z M26.7,3.2 C26.2,3.2 25.9,3.6 25.9,4 C25.9,4.4 26.2,4.8 26.7,4.8 C27.2,4.8 27.5,4.4 27.5,4 C27.5,3.5 27.1,3.2 26.7,3.2 L26.7,3.2 L26.7,3.2 Z M23.4,6.4 C22.9,6.4 22.6,6.8 22.6,7.2 C22.6,7.7 23,8 23.4,8 C23.9,8 24.2,7.6 24.2,7.2 C24.2,6.8 23.9,6.4 23.4,6.4 L23.4,6.4 L23.4,6.4 Z M4.1,6.4 C3.6,6.4 3.3,6.8 3.3,7.2 C3.3,7.7 3.6,8 4.1,8 C4.5,8 4.9,7.6 4.9,7.2 C4.8,6.8 4.5,6.4 4.1,6.4 L4.1,6.4 L4.1,6.4 Z M10.5,6.4 C10.1,6.4 9.7,6.8 9.7,7.2 C9.7,7.7 10.1,8 10.5,8 C11,8 11.3,7.6 11.3,7.2 C11.3,6.8 10.9,6.4 10.5,6.4 L10.5,6.4 L10.5,6.4 Z M13.7,6.4 C13.2,6.4 12.9,6.8 12.9,7.2 C12.9,7.7 13.2,8 13.7,8 C14.2,8 14.5,7.6 14.5,7.2 C14.5,6.8 14.2,6.4 13.7,6.4 L13.7,6.4 L13.7,6.4 Z M17,6.4 C16.5,6.4 16.2,6.8 16.2,7.2 C16.2,7.7 16.6,8 17,8 C17.4,8 17.8,7.6 17.8,7.2 C17.8,6.8 17.4,6.4 17,6.4 L17,6.4 L17,6.4 Z M20.2,6.4 C19.8,6.4 19.4,6.8 19.4,7.2 C19.4,7.7 19.8,8 20.2,8 C20.7,8 21,7.6 21,7.2 C21,6.8 20.6,6.4 20.2,6.4 L20.2,6.4 L20.2,6.4 Z M26.7,6.4 C26.2,6.4 25.9,6.8 25.9,7.2 C25.9,7.7 26.2,8 26.7,8 C27.2,8 27.5,7.6 27.5,7.2 C27.5,6.8 27.1,6.4 26.7,6.4 L26.7,6.4 L26.7,6.4 Z M29.9,6.4 C29.4,6.4 29.1,6.8 29.1,7.2 C29.1,7.7 29.5,8 29.9,8 C30.3,8 30.7,7.6 30.7,7.2 C30.7,6.8 30.3,6.4 29.9,6.4 L29.9,6.4 L29.9,6.4 Z M23.4,9.6 C22.9,9.6 22.6,10 22.6,10.4 C22.6,10.9 23,11.2 23.4,11.2 C23.9,11.2 24.2,10.9 24.2,10.4 C24.2,10 23.9,9.6 23.4,9.6 L23.4,9.6 L23.4,9.6 Z M4.1,9.6 C3.6,9.6 3.3,10 3.3,10.4 C3.3,10.9 3.6,11.2 4.1,11.2 C4.5,11.2 4.9,10.9 4.9,10.4 C4.8,10 4.5,9.6 4.1,9.6 L4.1,9.6 L4.1,9.6 Z M7.3,9.6 C6.8,9.6 6.5,10 6.5,10.4 C6.5,10.9 6.9,11.2 7.3,11.2 C7.7,11.2 8.1,10.9 8.1,10.4 C8.1,10 7.7,9.6 7.3,9.6 L7.3,9.6 L7.3,9.6 Z M13.7,9.6 C13.2,9.6 12.9,10 12.9,10.4 C12.9,10.9 13.2,11.2 13.7,11.2 C14.2,11.2 14.5,10.9 14.5,10.4 C14.5,10 14.2,9.6 13.7,9.6 L13.7,9.6 L13.7,9.6 Z M17,9.6 C16.5,9.6 16.2,10 16.2,10.4 C16.2,10.9 16.6,11.2 17,11.2 C17.4,11.2 17.8,10.9 17.8,10.4 C17.8,10 17.4,9.6 17,9.6 L17,9.6 L17,9.6 Z M20.2,9.6 C19.8,9.6 19.4,10 19.4,10.4 C19.4,10.9 19.8,11.2 20.2,11.2 C20.7,11.2 21,10.9 21,10.4 C21,10 20.6,9.6 20.2,9.6 L20.2,9.6 L20.2,9.6 Z M26.7,9.6 C26.2,9.6 25.9,9.9 25.9,10.4 C25.9,10.9 26.2,11.2 26.7,11.2 C27.2,11.2 27.5,10.9 27.5,10.4 C27.5,10 27.1,9.6 26.7,9.6 L26.7,9.6 L26.7,9.6 Z M29.9,9.6 C29.4,9.6 29.1,9.9 29.1,10.4 C29.1,10.9 29.5,11.2 29.9,11.2 C30.3,11.2 30.7,10.9 30.7,10.4 C30.7,10 30.3,9.6 29.9,9.6 L29.9,9.6 L29.9,9.6 Z M33.1,9.6 C32.7,9.6 32.3,9.9 32.3,10.4 C32.3,10.9 32.7,11.2 33.1,11.2 C33.6,11.2 34,10.9 34,10.4 C34,10 33.6,9.6 33.1,9.6 L33.1,9.6 L33.1,9.6 Z M36.4,9.6 C35.9,9.6 35.6,9.9 35.6,10.4 C35.6,10.9 36,11.2 36.4,11.2 C36.9,11.2 37.2,10.9 37.2,10.4 C37.2,10 36.8,9.6 36.4,9.6 L36.4,9.6 L36.4,9.6 Z M39.6,9.6 C39.1,9.6 38.8,9.9 38.8,10.4 C38.8,10.9 39.1,11.2 39.6,11.2 C40.1,11.2 40.4,10.9 40.4,10.4 C40.4,10 40.1,9.6 39.6,9.6 L39.6,9.6 L39.6,9.6 Z M42.8,9.6 C42.3,9.6 42,9.9 42,10.4 C42,10.9 42.4,11.2 42.8,11.2 C43.2,11.2 43.6,10.9 43.6,10.4 C43.7,10 43.3,9.6 42.8,9.6 L42.8,9.6 L42.8,9.6 Z M23.4,12.8 C22.9,12.8 22.6,13.2 22.6,13.6 C22.6,14.1 23,14.4 23.4,14.4 C23.9,14.4 24.2,14.1 24.2,13.6 C24.2,13.2 23.9,12.8 23.4,12.8 L23.4,12.8 L23.4,12.8 Z M7.3,12.9 C6.8,12.9 6.5,13.3 6.5,13.7 C6.5,14.1 6.9,14.5 7.3,14.5 C7.7,14.5 8.1,14.1 8.1,13.7 C8.1,13.2 7.7,12.9 7.3,12.9 L7.3,12.9 L7.3,12.9 Z M10.5,12.9 C10.1,12.9 9.7,13.3 9.7,13.7 C9.7,14.1 10.1,14.5 10.5,14.5 C11,14.5 11.3,14.1 11.3,13.7 C11.3,13.2 10.9,12.9 10.5,12.9 L10.5,12.9 L10.5,12.9 Z M13.7,12.9 C13.2,12.9 12.9,13.3 12.9,13.7 C12.9,14.1 13.2,14.5 13.7,14.5 C14.2,14.5 14.5,14.1 14.5,13.7 C14.5,13.2 14.2,12.9 13.7,12.9 L13.7,12.9 L13.7,12.9 Z M17,12.9 C16.5,12.9 16.2,13.3 16.2,13.7 C16.2,14.1 16.6,14.5 17,14.5 C17.4,14.5 17.8,14.1 17.8,13.7 C17.8,13.2 17.4,12.9 17,12.9 L17,12.9 L17,12.9 Z M20.2,12.9 C19.8,12.9 19.4,13.3 19.4,13.7 C19.4,14.1 19.8,14.5 20.2,14.5 C20.7,14.5 21,14.1 21,13.7 C21,13.2 20.6,12.9 20.2,12.9 L20.2,12.9 L20.2,12.9 Z M26.7,12.9 C26.2,12.9 25.9,13.3 25.9,13.7 C25.9,14.1 26.2,14.5 26.7,14.5 C27.2,14.5 27.5,14.1 27.5,13.7 C27.5,13.2 27.1,12.9 26.7,12.9 L26.7,12.9 L26.7,12.9 Z M29.9,12.9 C29.4,12.9 29.1,13.3 29.1,13.7 C29.1,14.1 29.5,14.5 29.9,14.5 C30.3,14.5 30.7,14.1 30.7,13.7 C30.7,13.2 30.3,12.9 29.9,12.9 L29.9,12.9 L29.9,12.9 Z M33.1,12.9 C32.7,12.9 32.3,13.3 32.3,13.7 C32.3,14.1 32.7,14.5 33.1,14.5 C33.6,14.5 34,14.1 34,13.7 C34,13.2 33.6,12.9 33.1,12.9 L33.1,12.9 L33.1,12.9 Z M36.4,12.9 C35.9,12.9 35.6,13.3 35.6,13.7 C35.6,14.1 36,14.5 36.4,14.5 C36.9,14.5 37.2,14.1 37.2,13.7 C37.2,13.2 36.8,12.9 36.4,12.9 L36.4,12.9 L36.4,12.9 Z M39.6,12.9 C39.1,12.9 38.8,13.3 38.8,13.7 C38.8,14.1 39.1,14.5 39.6,14.5 C40.1,14.5 40.4,14.1 40.4,13.7 C40.4,13.2 40.1,12.9 39.6,12.9 L39.6,12.9 L39.6,12.9 Z M42.8,12.9 C42.3,12.9 42,13.3 42,13.7 C42,14.1 42.4,14.5 42.8,14.5 C43.2,14.5 43.6,14.1 43.6,13.7 C43.7,13.2 43.3,12.9 42.8,12.9 L42.8,12.9 L42.8,12.9 Z M23.4,16 C22.9,16 22.6,16.3 22.6,16.8 C22.6,17.3 23,17.6 23.4,17.6 C23.9,17.6 24.2,17.2 24.2,16.8 C24.2,16.4 23.9,16 23.4,16 L23.4,16 L23.4,16 Z M7.3,16 C6.8,16 6.5,16.4 6.5,16.8 C6.5,17.2 6.9,17.6 7.3,17.6 C7.7,17.6 8.1,17.2 8.1,16.8 C8.1,16.4 7.7,16 7.3,16 L7.3,16 L7.3,16 Z M10.5,16 C10.1,16 9.7,16.4 9.7,16.8 C9.7,17.2 10.1,17.6 10.5,17.6 C11,17.6 11.3,17.2 11.3,16.8 C11.3,16.4 10.9,16 10.5,16 L10.5,16 L10.5,16 Z M17,16 C16.5,16 16.2,16.4 16.2,16.8 C16.2,17.2 16.6,17.6 17,17.6 C17.4,17.6 17.8,17.2 17.8,16.8 C17.8,16.4 17.4,16 17,16 L17,16 L17,16 Z M20.2,16 C19.8,16 19.4,16.4 19.4,16.8 C19.4,17.2 19.8,17.6 20.2,17.6 C20.7,17.6 21,17.2 21,16.8 C21,16.4 20.6,16 20.2,16 L20.2,16 L20.2,16 Z M26.7,16 C26.2,16 25.9,16.4 25.9,16.8 C25.9,17.2 26.2,17.6 26.7,17.6 C27.2,17.6 27.5,17.2 27.5,16.8 C27.5,16.4 27.1,16 26.7,16 L26.7,16 L26.7,16 Z M29.9,16 C29.4,16 29.1,16.4 29.1,16.8 C29.1,17.2 29.5,17.6 29.9,17.6 C30.3,17.6 30.7,17.2 30.7,16.8 C30.7,16.4 30.3,16 29.9,16 L29.9,16 L29.9,16 Z M33.1,16 C32.7,16 32.3,16.4 32.3,16.8 C32.3,17.2 32.7,17.6 33.1,17.6 C33.6,17.6 34,17.2 34,16.8 C34,16.4 33.6,16 33.1,16 L33.1,16 L33.1,16 Z M36.4,16 C35.9,16 35.6,16.4 35.6,16.8 C35.6,17.2 36,17.6 36.4,17.6 C36.9,17.6 37.2,17.2 37.2,16.8 C37.2,16.4 36.8,16 36.4,16 L36.4,16 L36.4,16 Z M39.6,16 C39.1,16 38.8,16.4 38.8,16.8 C38.8,17.2 39.1,17.6 39.6,17.6 C40.1,17.6 40.4,17.2 40.4,16.8 C40.4,16.4 40.1,16 39.6,16 L39.6,16 L39.6,16 Z M42.8,16 C42.3,16 42,16.4 42,16.8 C42,17.2 42.4,17.6 42.8,17.6 C43.2,17.6 43.6,17.2 43.6,16.8 C43.7,16.4 43.3,16 42.8,16 L42.8,16 L42.8,16 Z M46.1,16 C45.7,16 45.3,16.4 45.3,16.8 C45.3,17.2 45.7,17.6 46.1,17.6 C46.6,17.6 46.9,17.2 46.9,16.8 C46.9,16.4 46.5,16 46.1,16 L46.1,16 L46.1,16 Z M23.4,19.3 C22.9,19.3 22.6,19.7 22.6,20.1 C22.6,20.6 23,20.9 23.4,20.9 C23.9,20.9 24.2,20.5 24.2,20.1 C24.2,19.6 23.9,19.3 23.4,19.3 L23.4,19.3 L23.4,19.3 Z M13.7,19.3 C13.2,19.3 12.9,19.7 12.9,20.1 C12.9,20.6 13.2,20.9 13.7,20.9 C14.2,20.9 14.5,20.5 14.5,20.1 C14.5,19.7 14.2,19.3 13.7,19.3 L13.7,19.3 L13.7,19.3 Z M20.2,19.3 C19.8,19.3 19.4,19.7 19.4,20.1 C19.4,20.6 19.8,20.9 20.2,20.9 C20.7,20.9 21,20.5 21,20.1 C21,19.7 20.6,19.3 20.2,19.3 L20.2,19.3 L20.2,19.3 Z M26.7,19.3 C26.2,19.3 25.9,19.7 25.9,20.1 C25.9,20.5 26.2,20.9 26.7,20.9 C27.2,20.9 27.5,20.6 27.5,20.1 C27.5,19.6 27.1,19.3 26.7,19.3 L26.7,19.3 L26.7,19.3 Z M29.9,19.3 C29.4,19.3 29.1,19.7 29.1,20.1 C29.1,20.5 29.5,20.9 29.9,20.9 C30.3,20.9 30.7,20.6 30.7,20.1 C30.7,19.6 30.3,19.3 29.9,19.3 L29.9,19.3 L29.9,19.3 Z M33.1,19.3 C32.7,19.3 32.3,19.7 32.3,20.1 C32.3,20.5 32.7,20.9 33.1,20.9 C33.6,20.9 34,20.6 34,20.1 C34,19.6 33.6,19.3 33.1,19.3 L33.1,19.3 L33.1,19.3 Z M36.4,19.3 C35.9,19.3 35.6,19.7 35.6,20.1 C35.6,20.5 36,20.9 36.4,20.9 C36.9,20.9 37.2,20.6 37.2,20.1 C37.2,19.6 36.8,19.3 36.4,19.3 L36.4,19.3 L36.4,19.3 Z M39.6,19.3 C39.1,19.3 38.8,19.7 38.8,20.1 C38.8,20.5 39.1,20.9 39.6,20.9 C40.1,20.9 40.4,20.6 40.4,20.1 C40.4,19.6 40.1,19.3 39.6,19.3 L39.6,19.3 L39.6,19.3 Z M42.8,19.3 C42.3,19.3 42,19.7 42,20.1 C42,20.5 42.4,20.9 42.8,20.9 C43.2,20.9 43.6,20.6 43.6,20.1 C43.6,19.6 43.3,19.3 42.8,19.3 L42.8,19.3 L42.8,19.3 Z M46.1,19.3 C45.7,19.3 45.3,19.7 45.3,20.1 C45.3,20.5 45.7,20.9 46.1,20.9 C46.6,20.9 46.9,20.6 46.9,20.1 C46.9,19.6 46.5,19.3 46.1,19.3 L46.1,19.3 L46.1,19.3 Z M49.3,19.3 C48.8,19.3 48.5,19.7 48.5,20.1 C48.5,20.5 48.8,20.9 49.3,20.9 C49.8,20.9 50.1,20.6 50.1,20.1 C50.1,19.6 49.7,19.3 49.3,19.3 L49.3,19.3 L49.3,19.3 Z M52.5,19.3 C52,19.3 51.7,19.7 51.7,20.1 C51.7,20.5 52.1,20.9 52.5,20.9 C52.9,20.9 53.3,20.6 53.3,20.1 C53.3,19.6 53,19.3 52.5,19.3 L52.5,19.3 L52.5,19.3 Z M23.4,22.5 C22.9,22.5 22.6,22.9 22.6,23.3 C22.6,23.8 23,24.1 23.4,24.1 C23.9,24.1 24.2,23.7 24.2,23.3 C24.2,22.9 23.9,22.5 23.4,22.5 L23.4,22.5 L23.4,22.5 Z M13.7,22.5 C13.2,22.5 12.9,22.9 12.9,23.3 C12.9,23.7 13.2,24.1 13.7,24.1 C14.2,24.1 14.5,23.8 14.5,23.3 C14.5,22.8 14.2,22.5 13.7,22.5 L13.7,22.5 L13.7,22.5 Z M26.7,22.5 C26.2,22.5 25.9,22.9 25.9,23.3 C25.9,23.7 26.2,24.1 26.7,24.1 C27.2,24.1 27.5,23.8 27.5,23.3 C27.5,22.8 27.1,22.5 26.7,22.5 L26.7,22.5 L26.7,22.5 Z M29.9,22.5 C29.4,22.5 29.1,22.9 29.1,23.3 C29.1,23.7 29.5,24.1 29.9,24.1 C30.3,24.1 30.7,23.8 30.7,23.3 C30.7,22.8 30.3,22.5 29.9,22.5 L29.9,22.5 L29.9,22.5 Z M33.1,22.5 C32.7,22.5 32.3,22.9 32.3,23.3 C32.3,23.7 32.7,24.1 33.1,24.1 C33.6,24.1 34,23.8 34,23.3 C34,22.8 33.6,22.5 33.1,22.5 L33.1,22.5 L33.1,22.5 Z M36.4,22.5 C35.9,22.5 35.6,22.9 35.6,23.3 C35.6,23.7 36,24.1 36.4,24.1 C36.9,24.1 37.2,23.8 37.2,23.3 C37.2,22.8 36.8,22.5 36.4,22.5 L36.4,22.5 L36.4,22.5 Z M39.6,22.5 C39.1,22.5 38.8,22.9 38.8,23.3 C38.8,23.7 39.1,24.1 39.6,24.1 C40.1,24.1 40.4,23.8 40.4,23.3 C40.4,22.8 40.1,22.5 39.6,22.5 L39.6,22.5 L39.6,22.5 Z M42.8,22.5 C42.3,22.5 42,22.9 42,23.3 C42,23.7 42.4,24.1 42.8,24.1 C43.2,24.1 43.6,23.8 43.6,23.3 C43.6,22.8 43.3,22.5 42.8,22.5 L42.8,22.5 L42.8,22.5 Z M46.1,22.5 C45.7,22.5 45.3,22.9 45.3,23.3 C45.3,23.7 45.7,24.1 46.1,24.1 C46.6,24.1 46.9,23.8 46.9,23.3 C46.9,22.8 46.5,22.5 46.1,22.5 L46.1,22.5 L46.1,22.5 Z M49.3,22.5 C48.8,22.5 48.5,22.9 48.5,23.3 C48.5,23.7 48.8,24.1 49.3,24.1 C49.8,24.1 50.1,23.8 50.1,23.3 C50.1,22.8 49.7,22.5 49.3,22.5 L49.3,22.5 L49.3,22.5 Z M17,25.8 C16.5,25.8 16.2,26.2 16.2,26.6 C16.2,27 16.6,27.4 17,27.4 C17.4,27.4 17.8,27 17.8,26.6 C17.8,26.2 17.4,25.8 17,25.8 L17,25.8 L17,25.8 Z M26.7,25.8 C26.2,25.8 25.9,26.2 25.9,26.6 C25.9,27 26.2,27.4 26.7,27.4 C27.2,27.4 27.5,27 27.5,26.6 C27.5,26.2 27.1,25.8 26.7,25.8 L26.7,25.8 L26.7,25.8 Z M29.9,25.8 C29.4,25.8 29.1,26.2 29.1,26.6 C29.1,27 29.5,27.4 29.9,27.4 C30.3,27.4 30.7,27 30.7,26.6 C30.7,26.2 30.3,25.8 29.9,25.8 L29.9,25.8 L29.9,25.8 Z M33.1,25.8 C32.7,25.8 32.3,26.2 32.3,26.6 C32.3,27 32.7,27.4 33.1,27.4 C33.6,27.4 34,27 34,26.6 C34,26.2 33.6,25.8 33.1,25.8 L33.1,25.8 L33.1,25.8 Z M36.4,25.8 C35.9,25.8 35.6,26.2 35.6,26.6 C35.6,27 36,27.4 36.4,27.4 C36.9,27.4 37.2,27 37.2,26.6 C37.2,26.2 36.8,25.8 36.4,25.8 L36.4,25.8 L36.4,25.8 Z M39.6,25.8 C39.1,25.8 38.8,26.2 38.8,26.6 C38.8,27 39.1,27.4 39.6,27.4 C40.1,27.4 40.4,27 40.4,26.6 C40.4,26.2 40.1,25.8 39.6,25.8 L39.6,25.8 L39.6,25.8 Z M42.8,25.8 C42.3,25.8 42,26.2 42,26.6 C42,27 42.4,27.4 42.8,27.4 C43.2,27.4 43.6,27 43.6,26.6 C43.7,26.2 43.3,25.8 42.8,25.8 L42.8,25.8 L42.8,25.8 Z M46.1,25.8 C45.7,25.8 45.3,26.2 45.3,26.6 C45.3,27 45.7,27.4 46.1,27.4 C46.6,27.4 46.9,27 46.9,26.6 C46.9,26.2 46.5,25.8 46.1,25.8 L46.1,25.8 L46.1,25.8 Z M49.3,25.8 C48.8,25.8 48.5,26.2 48.5,26.6 C48.5,27 48.8,27.4 49.3,27.4 C49.8,27.4 50.1,27 50.1,26.6 C50.1,26.2 49.7,25.8 49.3,25.8 L49.3,25.8 L49.3,25.8 Z M29.9,29 C29.4,29 29.1,29.4 29.1,29.8 C29.1,30.2 29.5,30.6 29.9,30.6 C30.3,30.6 30.7,30.2 30.7,29.8 C30.7,29.4 30.3,29 29.9,29 L29.9,29 L29.9,29 Z M33.1,29 C32.7,29 32.3,29.4 32.3,29.8 C32.3,30.2 32.7,30.6 33.1,30.6 C33.6,30.6 34,30.2 34,29.8 C34,29.4 33.6,29 33.1,29 L33.1,29 L33.1,29 Z M36.4,29 C35.9,29 35.6,29.4 35.6,29.8 C35.6,30.2 36,30.6 36.4,30.6 C36.9,30.6 37.2,30.2 37.2,29.8 C37.2,29.4 36.8,29 36.4,29 L36.4,29 L36.4,29 Z M39.6,29 C39.1,29 38.8,29.4 38.8,29.8 C38.8,30.2 39.1,30.6 39.6,30.6 C40.1,30.6 40.4,30.2 40.4,29.8 C40.4,29.4 40.1,29 39.6,29 L39.6,29 L39.6,29 Z M42.8,29 C42.3,29 42,29.4 42,29.8 C42,30.2 42.4,30.6 42.8,30.6 C43.2,30.6 43.6,30.2 43.6,29.8 C43.7,29.4 43.3,29 42.8,29 L42.8,29 L42.8,29 Z M46.1,29 C45.7,29 45.3,29.4 45.3,29.8 C45.3,30.2 45.7,30.6 46.1,30.6 C46.6,30.6 46.9,30.2 46.9,29.8 C46.9,29.4 46.5,29 46.1,29 L46.1,29 L46.1,29 Z M49.3,29 C48.8,29 48.5,29.4 48.5,29.8 C48.5,30.2 48.8,30.6 49.3,30.6 C49.8,30.6 50.1,30.2 50.1,29.8 C50.1,29.4 49.7,29 49.3,29 L49.3,29 L49.3,29 Z M75.1,32.2 C74.6,32.2 74.3,32.6 74.3,33 C74.3,33.5 74.6,33.8 75.1,33.8 C75.6,33.8 75.9,33.4 75.9,33 C75.9,32.6 75.6,32.2 75.1,32.2 L75.1,32.2 L75.1,32.2 Z M71.9,32.2 C71.5,32.2 71.1,32.6 71.1,33 C71.1,33.5 71.5,33.8 71.9,33.8 C72.4,33.8 72.7,33.4 72.7,33 C72.7,32.6 72.3,32.2 71.9,32.2 L71.9,32.2 L71.9,32.2 Z M78.4,32.2 C77.9,32.2 77.6,32.6 77.6,33 C77.6,33.4 78,33.8 78.4,33.8 C78.8,33.8 79.2,33.5 79.2,33 C79.2,32.5 78.8,32.2 78.4,32.2 L78.4,32.2 L78.4,32.2 Z M29.9,32.3 C29.4,32.3 29.1,32.6 29.1,33.1 C29.1,33.6 29.5,33.9 29.9,33.9 C30.3,33.9 30.7,33.5 30.7,33.1 C30.7,32.7 30.3,32.3 29.9,32.3 L29.9,32.3 L29.9,32.3 Z M33.1,32.3 C32.7,32.3 32.3,32.6 32.3,33.1 C32.3,33.6 32.7,33.9 33.1,33.9 C33.6,33.9 34,33.5 34,33.1 C34,32.7 33.6,32.3 33.1,32.3 L33.1,32.3 L33.1,32.3 Z M36.4,32.3 C35.9,32.3 35.6,32.6 35.6,33.1 C35.6,33.6 36,33.9 36.4,33.9 C36.9,33.9 37.2,33.5 37.2,33.1 C37.2,32.7 36.8,32.3 36.4,32.3 L36.4,32.3 L36.4,32.3 Z M39.6,32.3 C39.1,32.3 38.8,32.6 38.8,33.1 C38.8,33.6 39.1,33.9 39.6,33.9 C40.1,33.9 40.4,33.5 40.4,33.1 C40.4,32.7 40.1,32.3 39.6,32.3 L39.6,32.3 L39.6,32.3 Z M42.8,32.3 C42.3,32.3 42,32.6 42,33.1 C42,33.6 42.4,33.9 42.8,33.9 C43.2,33.9 43.6,33.5 43.6,33.1 C43.6,32.7 43.3,32.3 42.8,32.3 L42.8,32.3 L42.8,32.3 Z M46.1,32.3 C45.7,32.3 45.3,32.6 45.3,33.1 C45.3,33.6 45.7,33.9 46.1,33.9 C46.6,33.9 46.9,33.5 46.9,33.1 C46.9,32.7 46.5,32.3 46.1,32.3 L46.1,32.3 L46.1,32.3 Z M49.3,32.3 C48.8,32.3 48.5,32.6 48.5,33.1 C48.5,33.6 48.8,33.9 49.3,33.9 C49.8,33.9 50.1,33.5 50.1,33.1 C50.1,32.7 49.7,32.3 49.3,32.3 L49.3,32.3 L49.3,32.3 Z M75.1,35.4 C74.6,35.4 74.3,35.7 74.3,36.2 C74.3,36.7 74.6,37 75.1,37 C75.6,37 75.9,36.6 75.9,36.2 C75.9,35.8 75.6,35.4 75.1,35.4 L75.1,35.4 L75.1,35.4 Z M68.7,35.5 C68.2,35.5 67.9,35.8 67.9,36.3 C67.9,36.8 68.3,37.1 68.7,37.1 C69.1,37.1 69.5,36.7 69.5,36.3 C69.5,35.9 69.1,35.5 68.7,35.5 L68.7,35.5 L68.7,35.5 Z M71.9,35.5 C71.5,35.5 71.1,35.8 71.1,36.3 C71.1,36.8 71.5,37.1 71.9,37.1 C72.4,37.1 72.7,36.7 72.7,36.3 C72.7,35.9 72.3,35.5 71.9,35.5 L71.9,35.5 L71.9,35.5 Z M78.4,35.5 C77.9,35.5 77.6,35.9 77.6,36.3 C77.6,36.7 78,37.1 78.4,37.1 C78.8,37.1 79.2,36.8 79.2,36.3 C79.2,35.8 78.8,35.5 78.4,35.5 L78.4,35.5 L78.4,35.5 Z M29.9,35.5 C29.4,35.5 29.1,35.8 29.1,36.3 C29.1,36.8 29.5,37.1 29.9,37.1 C30.3,37.1 30.7,36.7 30.7,36.3 C30.7,35.9 30.3,35.5 29.9,35.5 L29.9,35.5 L29.9,35.5 Z M33.1,35.5 C32.7,35.5 32.3,35.8 32.3,36.3 C32.3,36.8 32.7,37.1 33.1,37.1 C33.6,37.1 34,36.7 34,36.3 C34,35.9 33.6,35.5 33.1,35.5 L33.1,35.5 L33.1,35.5 Z M36.4,35.5 C35.9,35.5 35.6,35.8 35.6,36.3 C35.6,36.8 36,37.1 36.4,37.1 C36.9,37.1 37.2,36.7 37.2,36.3 C37.2,35.9 36.8,35.5 36.4,35.5 L36.4,35.5 L36.4,35.5 Z M39.6,35.5 C39.1,35.5 38.8,35.8 38.8,36.3 C38.8,36.8 39.1,37.1 39.6,37.1 C40.1,37.1 40.4,36.7 40.4,36.3 C40.4,35.9 40.1,35.5 39.6,35.5 L39.6,35.5 L39.6,35.5 Z M42.8,35.5 C42.3,35.5 42,35.8 42,36.3 C42,36.8 42.4,37.1 42.8,37.1 C43.2,37.1 43.6,36.7 43.6,36.3 C43.6,35.9 43.3,35.5 42.8,35.5 L42.8,35.5 L42.8,35.5 Z M46.1,35.5 C45.7,35.5 45.3,35.8 45.3,36.3 C45.3,36.8 45.7,37.1 46.1,37.1 C46.6,37.1 46.9,36.7 46.9,36.3 C46.9,35.9 46.5,35.5 46.1,35.5 L46.1,35.5 L46.1,35.5 Z M49.3,35.5 C48.8,35.5 48.5,35.8 48.5,36.3 C48.5,36.8 48.8,37.1 49.3,37.1 C49.8,37.1 50.1,36.7 50.1,36.3 C50.1,35.9 49.7,35.5 49.3,35.5 L49.3,35.5 L49.3,35.5 Z M52.5,35.5 C52,35.5 51.7,35.8 51.7,36.3 C51.7,36.8 52.1,37.1 52.5,37.1 C52.9,37.1 53.3,36.7 53.3,36.3 C53.3,35.9 53,35.5 52.5,35.5 L52.5,35.5 L52.5,35.5 Z M75.1,38.7 C74.6,38.7 74.3,39 74.3,39.5 C74.3,40 74.6,40.3 75.1,40.3 C75.6,40.3 75.9,39.9 75.9,39.5 C75.9,39.1 75.6,38.7 75.1,38.7 L75.1,38.7 L75.1,38.7 Z M68.7,38.7 C68.2,38.7 67.9,39.1 67.9,39.5 C67.9,39.9 68.3,40.3 68.7,40.3 C69.1,40.3 69.5,39.9 69.5,39.5 C69.5,39.1 69.1,38.7 68.7,38.7 L68.7,38.7 L68.7,38.7 Z M71.9,38.7 C71.5,38.7 71.1,39.1 71.1,39.5 C71.1,39.9 71.5,40.3 71.9,40.3 C72.4,40.3 72.7,39.9 72.7,39.5 C72.7,39.1 72.3,38.7 71.9,38.7 L71.9,38.7 L71.9,38.7 Z M33.1,38.7 C32.7,38.7 32.3,39.1 32.3,39.5 C32.3,39.9 32.7,40.3 33.1,40.3 C33.6,40.3 34,39.9 34,39.5 C34,39.1 33.6,38.7 33.1,38.7 L33.1,38.7 L33.1,38.7 Z M36.4,38.7 C35.9,38.7 35.6,39.1 35.6,39.5 C35.6,39.9 36,40.3 36.4,40.3 C36.9,40.3 37.2,39.9 37.2,39.5 C37.2,39.1 36.8,38.7 36.4,38.7 L36.4,38.7 L36.4,38.7 Z M39.6,38.7 C39.1,38.7 38.8,39.1 38.8,39.5 C38.8,39.9 39.1,40.3 39.6,40.3 C40.1,40.3 40.4,39.9 40.4,39.5 C40.4,39.1 40.1,38.7 39.6,38.7 L39.6,38.7 L39.6,38.7 Z M42.8,38.7 C42.3,38.7 42,39.1 42,39.5 C42,39.9 42.4,40.3 42.8,40.3 C43.2,40.3 43.6,39.9 43.6,39.5 C43.7,39.1 43.3,38.7 42.8,38.7 L42.8,38.7 L42.8,38.7 Z M46.1,38.7 C45.7,38.7 45.3,39.1 45.3,39.5 C45.3,39.9 45.7,40.3 46.1,40.3 C46.6,40.3 46.9,39.9 46.9,39.5 C46.9,39.1 46.5,38.7 46.1,38.7 L46.1,38.7 L46.1,38.7 Z M49.3,38.7 C48.8,38.7 48.5,39.1 48.5,39.5 C48.5,39.9 48.8,40.3 49.3,40.3 C49.8,40.3 50.1,39.9 50.1,39.5 C50.1,39.1 49.7,38.7 49.3,38.7 L49.3,38.7 L49.3,38.7 Z M52.5,38.7 C52,38.7 51.7,39.1 51.7,39.5 C51.7,39.9 52.1,40.3 52.5,40.3 C52.9,40.3 53.3,39.9 53.3,39.5 C53.3,39.1 53,38.7 52.5,38.7 L52.5,38.7 L52.5,38.7 Z M62.2,41.9 C61.7,41.9 61.4,42.3 61.4,42.7 C61.4,43.2 61.8,43.5 62.2,43.5 C62.7,43.5 63,43.1 63,42.7 C63,42.3 62.7,41.9 62.2,41.9 L62.2,41.9 L62.2,41.9 Z M65.5,41.9 C65,41.9 64.7,42.3 64.7,42.7 C64.7,43.2 65,43.5 65.5,43.5 C66,43.5 66.3,43.1 66.3,42.7 C66.2,42.3 65.9,41.9 65.5,41.9 L65.5,41.9 L65.5,41.9 Z M68.7,41.9 C68.2,41.9 67.9,42.3 67.9,42.7 C67.9,43.2 68.3,43.5 68.7,43.5 C69.1,43.5 69.5,43.1 69.5,42.7 C69.5,42.3 69.1,41.9 68.7,41.9 L68.7,41.9 L68.7,41.9 Z M71.9,41.9 C71.5,41.9 71.1,42.3 71.1,42.7 C71.1,43.2 71.5,43.5 71.9,43.5 C72.4,43.5 72.7,43.1 72.7,42.7 C72.7,42.3 72.3,41.9 71.9,41.9 L71.9,41.9 L71.9,41.9 Z M36.4,41.9 C35.9,41.9 35.6,42.3 35.6,42.7 C35.6,43.2 36,43.5 36.4,43.5 C36.9,43.5 37.2,43.1 37.2,42.7 C37.2,42.3 36.8,41.9 36.4,41.9 L36.4,41.9 L36.4,41.9 Z M39.6,41.9 C39.1,41.9 38.8,42.3 38.8,42.7 C38.8,43.2 39.1,43.5 39.6,43.5 C40.1,43.5 40.4,43.1 40.4,42.7 C40.4,42.3 40.1,41.9 39.6,41.9 L39.6,41.9 L39.6,41.9 Z M42.8,41.9 C42.3,41.9 42,42.3 42,42.7 C42,43.2 42.4,43.5 42.8,43.5 C43.2,43.5 43.6,43.1 43.6,42.7 C43.7,42.3 43.3,41.9 42.8,41.9 L42.8,41.9 L42.8,41.9 Z M46.1,41.9 C45.7,41.9 45.3,42.3 45.3,42.7 C45.3,43.2 45.7,43.5 46.1,43.5 C46.6,43.5 46.9,43.1 46.9,42.7 C46.9,42.3 46.5,41.9 46.1,41.9 L46.1,41.9 L46.1,41.9 Z M49.3,41.9 C48.8,41.9 48.5,42.3 48.5,42.7 C48.5,43.2 48.8,43.5 49.3,43.5 C49.8,43.5 50.1,43.1 50.1,42.7 C50.1,42.3 49.7,41.9 49.3,41.9 L49.3,41.9 L49.3,41.9 Z M52.5,41.9 C52,41.9 51.7,42.3 51.7,42.7 C51.7,43.2 52.1,43.5 52.5,43.5 C52.9,43.5 53.3,43.1 53.3,42.7 C53.3,42.3 53,41.9 52.5,41.9 L52.5,41.9 L52.5,41.9 Z M55.8,41.9 C55.4,41.9 55,42.3 55,42.7 C55,43.2 55.4,43.5 55.8,43.5 C56.3,43.5 56.6,43.1 56.6,42.7 C56.6,42.3 56.2,41.9 55.8,41.9 L55.8,41.9 L55.8,41.9 Z M59,41.9 C58.6,41.9 58.2,42.3 58.2,42.7 C58.2,43.2 58.6,43.5 59,43.5 C59.5,43.5 59.8,43.1 59.8,42.7 C59.8,42.3 59.4,41.9 59,41.9 L59,41.9 L59,41.9 Z M62.2,45.1 C61.7,45.1 61.4,45.5 61.4,45.9 C61.4,46.3 61.8,46.7 62.2,46.7 C62.7,46.7 63,46.4 63,45.9 C63,45.4 62.7,45.1 62.2,45.1 L62.2,45.1 L62.2,45.1 Z M65.5,45.1 C65,45.1 64.7,45.5 64.7,45.9 C64.7,46.3 65,46.7 65.5,46.7 C66,46.7 66.3,46.4 66.3,45.9 C66.3,45.4 65.9,45.1 65.5,45.1 L65.5,45.1 L65.5,45.1 Z M68.7,45.1 C68.2,45.1 67.9,45.5 67.9,45.9 C67.9,46.3 68.3,46.7 68.7,46.7 C69.1,46.7 69.5,46.4 69.5,45.9 C69.5,45.4 69.1,45.1 68.7,45.1 L68.7,45.1 L68.7,45.1 Z M42.8,45.2 C42.3,45.2 42,45.6 42,46 C42,46.4 42.4,46.8 42.8,46.8 C43.2,46.8 43.6,46.5 43.6,46 C43.6,45.5 43.3,45.2 42.8,45.2 L42.8,45.2 L42.8,45.2 Z M46.1,45.2 C45.7,45.2 45.3,45.6 45.3,46 C45.3,46.4 45.7,46.8 46.1,46.8 C46.6,46.8 46.9,46.5 46.9,46 C46.9,45.5 46.5,45.2 46.1,45.2 L46.1,45.2 L46.1,45.2 Z M49.3,45.2 C48.8,45.2 48.5,45.6 48.5,46 C48.5,46.4 48.8,46.8 49.3,46.8 C49.8,46.8 50.1,46.5 50.1,46 C50.1,45.5 49.7,45.2 49.3,45.2 L49.3,45.2 L49.3,45.2 Z M52.5,45.2 C52,45.2 51.7,45.6 51.7,46 C51.7,46.4 52.1,46.8 52.5,46.8 C52.9,46.8 53.3,46.5 53.3,46 C53.3,45.5 53,45.2 52.5,45.2 L52.5,45.2 L52.5,45.2 Z M55.8,45.2 C55.4,45.2 55,45.6 55,46 C55,46.4 55.4,46.8 55.8,46.8 C56.3,46.8 56.6,46.5 56.6,46 C56.6,45.5 56.2,45.2 55.8,45.2 L55.8,45.2 L55.8,45.2 Z M59,45.2 C58.6,45.2 58.2,45.6 58.2,46 C58.2,46.4 58.6,46.8 59,46.8 C59.5,46.8 59.8,46.5 59.8,46 C59.8,45.5 59.4,45.2 59,45.2 L59,45.2 L59,45.2 Z M62.2,48.4 C61.7,48.4 61.4,48.8 61.4,49.2 C61.4,49.6 61.8,50 62.2,50 C62.7,50 63,49.7 63,49.2 C63,48.7 62.7,48.4 62.2,48.4 L62.2,48.4 L62.2,48.4 Z M65.5,48.4 C65,48.4 64.7,48.8 64.7,49.2 C64.7,49.6 65,50 65.5,50 C66,50 66.3,49.7 66.3,49.2 C66.3,48.7 65.9,48.4 65.5,48.4 L65.5,48.4 L65.5,48.4 Z M52.5,48.4 C52,48.4 51.7,48.8 51.7,49.2 C51.7,49.7 52.1,50 52.5,50 C52.9,50 53.3,49.7 53.3,49.2 C53.3,48.8 53,48.4 52.5,48.4 L52.5,48.4 L52.5,48.4 Z M55.8,48.4 C55.4,48.4 55,48.8 55,49.2 C55,49.7 55.4,50 55.8,50 C56.3,50 56.6,49.7 56.6,49.2 C56.6,48.8 56.2,48.4 55.8,48.4 L55.8,48.4 L55.8,48.4 Z M65.5,51.6 C65,51.6 64.7,52 64.7,52.4 C64.7,52.8 65,53.2 65.5,53.2 C66,53.2 66.3,52.8 66.3,52.4 C66.2,52 65.9,51.6 65.5,51.6 L65.5,51.6 L65.5,51.6 Z" id="Shape" stroke="#FFFFFF"></path>
                <text id="Plataforma-Nacional" font-family="Roboto-Black, Roboto" font-size="22" font-weight="700">
                    <tspan x="93" y="22">P</tspan>
                    <tspan x="107.319336" y="22" font-family="Roboto-Light, Roboto" font-weight="300">lataforma</tspan>
                    <tspan x="201.173828" y="22" font-family="Roboto-Medium, Roboto" font-weight="400"> </tspan>
                    <tspan x="206.652344" y="22">N</tspan>
                    <tspan x="222.099609" y="22" font-family="Roboto-Light, Roboto" font-weight="300">acional</tspan>
                    <tspan x="93" y="47" font-family="Roboto-Light, Roboto" font-weight="300">de</tspan>
                    <tspan x="116.589844" y="47" font-family="Roboto-Medium, Roboto" font-weight="400"> </tspan>
                    <tspan x="122.068359" y="47">T</tspan>
                    <tspan x="135.936523" y="47" font-family="Roboto-Light, Roboto" font-weight="300">ransparencia</tspan>
                </text>
            </g>
        </g>
    </g>
</svg>