<?xml version="1.0" encoding="UTF-8" standalone="no"?>
<svg width="870px" height="587px" viewBox="0 0 870 587" version="1.1" xmlns="http://www.w3.org/2000/svg" xmlns:xlink="http://www.w3.org/1999/xlink">
    <!-- Generator: Sketch 3.8.2 (29753) - http://www.bohemiancoding.com/sketch -->
    <title>mapa</title>
    <desc>Created with Sketch.</desc>
    <defs></defs>
    <g id="web" stroke="none" stroke-width="1" fill="none" fill-rule="evenodd">
        <g id="LANDING" transform="translate(-285.000000, -128.000000)" fill="#000000" opacity=".03">
            <g id="Group-5">
                <g id="mapa" transform="translate(285.000000, 128.000000)">
                    <path d="M845.803685,349.015921 C846.201928,355.251695 851.222211,360.242731 857.606177,360.242731 C864.147026,360.242731 869.493145,354.88915 869.493145,348.278746 C869.493145,347.940371 869.336261,347.650335 869.300057,347.311959 C868.769065,341.160779 863.797054,336.375185 857.594109,336.375185 C850.93258,336.375185 845.646801,341.668342 845.646801,348.278746 C845.646801,348.375425 845.707141,348.435849 845.707141,348.532527 C845.707141,348.68963 845.767481,348.810479 845.767481,348.931327 L845.646801,348.907157 L845.803685,349.015921 L845.803685,349.015921 Z" id="Shape"></path>
                    <path d="M506.234649,158.65563 L506.138105,158.184321 L505.981221,157.90637 L505.75193,157.809691 L505.63125,157.809691 C505.474366,157.55591 505.293346,157.338383 505.136462,157.084601 C504.171023,155.561912 502.915953,154.317175 501.395386,153.338303 C501.298842,153.314133 501.202298,153.217455 501.117822,153.1812 L500.840259,152.649468 L500.586831,152.492365 L500.116179,152.492365 C499.862752,152.371516 499.585188,152.299007 499.319692,152.214414 C498.01635,151.718935 496.664735,151.38056 495.204508,151.38056 C488.603319,151.38056 483.257201,156.734141 483.257201,163.320375 C483.257201,169.930779 488.603319,175.26019 495.204508,175.26019 C501.141958,175.26019 505.848474,170.861311 506.777709,165.193524 C506.874252,164.540943 507.151816,163.972956 507.151816,163.320375 C507.151816,161.664753 506.813913,160.10581 506.222581,158.679799 L506.222581,158.65563 L506.234649,158.65563 Z" id="Shape"></path>
                    <path d="M12.135032,0.283891696 C5.50970679,0.283891696 0.187724252,5.6495576 0.187724252,12.2237068 C0.187724252,18.8341105 5.50970679,24.1635219 12.135032,24.1635219 C18.6758813,24.1635219 24.0219998,18.8341105 24.0219998,12.2237068 C24.0219998,5.6495576 18.6758813,0.283891696 12.135032,0.283891696 L12.135032,0.283891696 Z" id="Shape"></path>
                    <path d="M12.135032,38.06108 C11.0489131,38.06108 10.0834741,38.3994553 9.09389912,38.6774065 C3.98914035,40.0550775 0.187724252,44.4781264 0.187724252,50.0008951 C0.187724252,56.6112988 5.50970679,61.9407102 12.135032,61.9407102 C14.2831338,61.9407102 16.2140118,61.1914506 17.951802,60.1884094 C21.4997904,58.1339878 24.0219998,54.423944 24.0219998,50.0008951 C24.0219998,43.4267459 18.6758813,38.06108 12.135032,38.06108 L12.135032,38.06108 Z" id="Shape"></path>
                    <path d="M52.3817707,0.283891696 C45.7564455,0.283891696 40.422395,5.6495576 40.422395,12.2237068 C40.422395,18.8341105 45.7443775,24.1635219 52.3817707,24.1635219 C58.946756,24.1635219 64.3049425,18.8341105 64.3049425,12.2237068 C64.3049425,5.6495576 58.946756,0.283891696 52.3817707,0.283891696 L52.3817707,0.283891696 Z" id="Shape"></path>
                    <path d="M55.3384277,38.6532368 C54.3729887,38.3994553 53.4437536,38.06108 52.3817707,38.06108 C45.7564455,38.06108 40.422395,43.4146611 40.422395,50.0008951 C40.422395,56.6112988 45.7443775,61.9407102 52.3817707,61.9407102 C56.1228469,61.9407102 59.3208636,60.1400701 61.4931014,57.4209826 C63.1464157,55.366561 64.2928745,52.8770854 64.2928745,50.0008951 C64.3049425,44.4902112 60.4431864,40.018823 55.3384277,38.6532368 L55.3384277,38.6532368 Z" id="Shape"></path>
                    <path d="M92.6043735,61.9407102 C96.3333816,61.9407102 99.5434663,60.1400701 101.715704,57.4209826 C103.369018,55.366561 104.515477,52.8770854 104.515477,50.0008951 C104.515477,44.4781264 100.653721,40.018823 95.5489624,38.6532368 C94.5835234,38.3994553 93.6542884,38.06108 92.5923055,38.06108 C85.9549123,38.06108 80.6329297,43.4146611 80.6329297,50.0008951 C80.6449977,56.6112988 85.9669803,61.9407102 92.6043735,61.9407102 L92.6043735,61.9407102 Z" id="Shape"></path>
                    <path d="M52.3817707,75.8382683 C45.7564455,75.8382683 40.422395,81.1918494 40.422395,87.7780834 C40.422395,94.3884871 45.7443775,99.7178985 52.3817707,99.7178985 C58.946756,99.7178985 64.3049425,94.3884871 64.3049425,87.7780834 C64.3049425,81.2039342 58.946756,75.8382683 52.3817707,75.8382683 L52.3817707,75.8382683 Z" id="Shape"></path>
                    <path d="M55.1574079,151.960632 C54.2161048,151.743105 53.3472097,151.40473 52.3938387,151.40473 C45.7685135,151.40473 40.434463,156.758311 40.434463,163.344545 C40.434463,169.954949 45.7564455,175.28436 52.3938387,175.28436 C58.4278325,175.28436 63.2188236,170.740463 64.0032428,164.879319 C64.0635827,164.347586 64.3170105,163.876278 64.3170105,163.35663 C64.3049425,157.725097 60.3466425,153.241624 55.1574079,151.960632 L55.1574079,151.960632 Z" id="Shape"></path>
                    <path d="M55.1574079,114.183444 C54.2161048,113.965917 53.3472097,113.627541 52.3938387,113.627541 C45.7685135,113.627541 40.434463,118.993207 40.434463,125.567357 C40.434463,132.17776 45.7564455,137.507172 52.3938387,137.507172 C58.4278325,137.507172 63.2188236,132.95119 64.0032428,127.090046 C64.0635827,126.558313 64.3170105,126.087004 64.3170105,125.567357 C64.3049425,119.947909 60.3466425,115.464436 55.1574079,114.183444 L55.1574079,114.183444 Z" id="Shape"></path>
                    <path d="M92.6285094,0.283891696 C88.6460735,0.283891696 85.3153089,2.33831332 83.1310032,5.33535194 C81.6949126,7.30517973 80.6691337,9.61338286 80.6691337,12.2237068 C80.6691337,18.8341105 86.0273202,24.1635219 92.6285094,24.1635219 C99.1090188,24.1635219 104.262049,19.015383 104.479273,12.6225063 C104.515477,12.4654035 104.575817,12.3687248 104.575817,12.211622 C104.575817,5.6495576 99.2296987,0.283891696 92.6285094,0.283891696 L92.6285094,0.283891696 Z" id="Shape"></path>
                    <path d="M92.6285094,113.651711 C86.0273202,113.651711 80.6691337,118.981123 80.6691337,125.555272 C80.6691337,132.20193 86.0273202,137.495087 92.6285094,137.495087 C99.2296987,137.495087 104.575817,132.20193 104.575817,125.555272 C104.575817,118.981123 99.2296987,113.651711 92.6285094,113.651711 L92.6285094,113.651711 Z" id="Shape"></path>
                    <ellipse id="Oval" cx="92.6285094" cy="163.344545" rx="11.9231718" ry="11.9398151"></ellipse>
                    <ellipse id="Oval" cx="132.899384" cy="50.0008951" rx="11.9231718" ry="11.9398151"></ellipse>
                    <ellipse id="Oval" cx="132.899384" cy="87.7780834" rx="11.9231718" ry="11.9398151"></ellipse>
                    <path d="M132.899384,151.40473 C130.292699,151.40473 128.011849,152.407771 126.056835,153.797527 C123.039838,155.984881 120.952076,159.344465 120.952076,163.344545 C120.952076,169.954949 126.298195,175.28436 132.899384,175.28436 C135.168166,175.28436 137.171452,174.474676 138.969582,173.387041 C142.39689,171.296365 144.822556,167.683 144.822556,163.344545 C144.834624,156.758311 139.476437,151.40473 132.899384,151.40473 L132.899384,151.40473 Z" id="Shape"></path>
                    <path d="M132.899384,189.181918 C126.298195,189.181918 120.952076,194.535499 120.952076,201.085479 C120.952076,202.209368 121.28998,203.200324 121.579612,204.227535 C122.762275,208.408888 125.996495,211.526774 130.232359,212.517731 C131.101254,212.711088 131.946013,213.049463 132.911452,213.049463 C139.476437,213.049463 144.834624,207.720052 144.834624,201.085479 C144.834624,194.535499 139.476437,189.181918 132.899384,189.181918 L132.899384,189.181918 Z" id="Shape"></path>
                    <path d="M134.745786,227.357906 C134.118251,227.261227 133.563123,226.983276 132.911452,226.983276 C126.310263,226.983276 120.964144,232.312687 120.964144,238.886837 C120.964144,245.52141 126.310263,250.826652 132.911452,250.826652 C134.033775,250.826652 135.095758,250.488276 136.121537,250.174071 C136.495644,250.077392 136.893888,250.077392 137.24386,249.956544 C137.835191,249.702762 138.329979,249.328132 138.86097,249.013927 C142.384822,246.923251 144.846692,243.273631 144.846692,238.886837 C144.834624,232.977353 140.405672,228.264268 134.745786,227.357906 L134.745786,227.357906 Z" id="Shape"></path>
                    <path d="M173.158191,260.808724 C168.294792,260.808724 164.191676,263.672829 162.321138,267.817927 C161.633263,269.316446 161.198815,270.935814 161.198815,272.712285 C161.198815,279.322688 166.520798,284.6521 173.158191,284.6521 C175.837284,284.6521 178.166406,283.588634 180.157624,282.12637 C183.090145,279.939015 185.081363,276.639855 185.081363,272.712285 C185.081363,266.101881 179.723176,260.808724 173.158191,260.808724 L173.158191,260.808724 Z" id="Shape"></path>
                    <path d="M173.158191,38.06108 C166.520798,38.06108 161.198815,43.4146611 161.198815,50.0008951 C161.198815,56.6112988 166.520798,61.9407102 173.158191,61.9407102 C179.723176,61.9407102 185.081363,56.6112988 185.081363,50.0008951 C185.081363,43.4267459 179.723176,38.06108 173.158191,38.06108 L173.158191,38.06108 Z" id="Shape"></path>
                    <path d="M173.158191,75.8382683 C166.520798,75.8382683 161.198815,81.1918494 161.198815,87.7780834 C161.198815,94.3884871 166.520798,99.7178985 173.158191,99.7178985 C179.723176,99.7178985 185.081363,94.3884871 185.081363,87.7780834 C185.081363,81.2039342 179.723176,75.8382683 173.158191,75.8382683 L173.158191,75.8382683 Z" id="Shape"></path>
                    <path d="M173.158191,113.651711 C166.520798,113.651711 161.198815,118.981123 161.198815,125.555272 C161.198815,132.20193 166.520798,137.495087 173.158191,137.495087 C179.723176,137.495087 185.081363,132.20193 185.081363,125.555272 C185.081363,118.981123 179.723176,113.651711 173.158191,113.651711 L173.158191,113.651711 Z" id="Shape"></path>
                    <path d="M173.158191,226.983276 C172.096208,226.983276 171.191109,227.333736 170.22567,227.575433 C165.060571,228.880595 161.198815,233.339898 161.198815,238.886837 C161.198815,245.52141 166.520798,250.826652 173.158191,250.826652 C174.30465,250.826652 175.306293,250.488276 176.368276,250.174071 C181.352354,248.77223 185.081363,244.373351 185.081363,238.886837 C185.081363,232.324772 179.723176,226.983276 173.158191,226.983276 L173.158191,226.983276 Z" id="Shape"></path>
                    <path d="M213.429066,260.808724 C208.819094,260.808724 204.957338,263.455302 202.96612,267.22577 C202.097225,268.881392 201.46969,270.682033 201.46969,272.712285 C201.46969,279.322688 206.791672,284.6521 213.416998,284.6521 C213.634221,284.6521 213.791105,284.555421 213.972125,284.531251 C220.259547,284.217046 225.328101,279.105161 225.328101,272.712285 C225.352237,266.101881 220.006119,260.808724 213.429066,260.808724 L213.429066,260.808724 Z" id="Shape"></path>
                    <path d="M213.429066,298.585912 C210.846516,298.585912 208.60187,299.552699 206.646856,300.918285 C206.055525,301.353339 205.500398,301.788393 204.969406,302.295956 L204.909066,302.320126 L204.631503,302.573907 C202.736828,304.664583 201.493826,307.40784 201.493826,310.501558 C201.493826,317.099877 206.815808,322.429288 213.441133,322.429288 C220.006119,322.429288 225.364305,317.099877 225.364305,310.501558 C225.352237,303.879069 220.006119,298.585912 213.429066,298.585912 L213.429066,298.585912 Z" id="Shape"></path>
                    <ellipse id="Oval" cx="213.429066" cy="50.0008951" rx="11.9231718" ry="11.9398151"></ellipse>
                    <ellipse id="Oval" cx="213.429066" cy="87.7780834" rx="11.9231718" ry="11.9398151"></ellipse>
                    <path d="M213.429066,113.651711 C206.80374,113.651711 201.481758,118.981123 201.481758,125.555272 C201.481758,132.20193 206.80374,137.495087 213.429066,137.495087 C219.994051,137.495087 225.352237,132.20193 225.352237,125.555272 C225.352237,118.981123 220.006119,113.651711 213.429066,113.651711 L213.429066,113.651711 Z" id="Shape"></path>
                    <ellipse id="Oval" cx="213.429066" cy="163.344545" rx="11.9231718" ry="11.9398151"></ellipse>
                    <path d="M213.429066,189.181918 C213.211842,189.181918 213.018754,189.302766 212.80153,189.302766 C206.489973,189.641142 201.481758,194.753026 201.481758,201.085479 C201.481758,207.381677 206.333089,212.372713 212.49983,212.868191 C212.80153,212.904445 213.091162,213.061548 213.429066,213.061548 C219.994051,213.061548 225.352237,207.732137 225.352237,201.097563 C225.352237,194.535499 220.006119,189.181918 213.429066,189.181918 L213.429066,189.181918 Z" id="Shape"></path>
                    <path d="M253.675804,0.283891696 C247.074615,0.283891696 241.728496,5.6495576 241.728496,12.2237068 C241.728496,17.7464755 245.554049,22.205779 250.634671,23.5471954 C251.636314,23.8251466 252.589685,24.1756068 253.675804,24.1756068 C257.199657,24.1756068 260.301129,22.5562391 262.485435,20.1271877 C264.355973,18.0123419 265.598976,15.2932544 265.598976,12.2357916 C265.598976,5.6495576 260.252857,0.283891696 253.675804,0.283891696 L253.675804,0.283891696 Z" id="Shape"></path>
                    <ellipse id="Oval" cx="253.675804" cy="50.0008951" rx="11.9231718" ry="11.9398151"></ellipse>
                    <ellipse id="Oval" cx="253.675804" cy="87.7780834" rx="11.9231718" ry="11.9398151"></ellipse>
                    <path d="M253.675804,113.651711 C247.074615,113.651711 241.728496,118.981123 241.728496,125.555272 C241.728496,132.20193 247.074615,137.495087 253.675804,137.495087 C260.240789,137.495087 265.598976,132.20193 265.598976,125.555272 C265.598976,118.981123 260.252857,113.651711 253.675804,113.651711 L253.675804,113.651711 Z" id="Shape"></path>
                    <ellipse id="Oval" cx="253.675804" cy="163.344545" rx="11.9231718" ry="11.9398151"></ellipse>
                    <path d="M253.675804,189.181918 C247.074615,189.181918 241.728496,194.535499 241.728496,201.085479 C241.728496,207.720052 247.074615,213.049463 253.675804,213.049463 C260.240789,213.049463 265.598976,207.720052 265.598976,201.085479 C265.598976,194.535499 260.252857,189.181918 253.675804,189.181918 L253.675804,189.181918 Z" id="Shape"></path>
                    <path d="M253.675804,226.983276 C248.981357,226.983276 245.023057,229.762788 243.068043,233.654104 C242.295692,235.273472 241.728496,236.989518 241.728496,238.886837 C241.728496,245.52141 247.074615,250.826652 253.675804,250.826652 C253.772348,250.826652 253.832688,250.802482 253.893028,250.766228 C260.373537,250.645379 265.598976,245.436816 265.598976,238.886837 C265.598976,232.324772 260.252857,226.983276 253.675804,226.983276 L253.675804,226.983276 Z" id="Shape"></path>
                    <path d="M293.958747,260.808724 C287.333422,260.808724 281.999371,266.101881 281.999371,272.712285 C281.999371,279.322688 287.321354,284.6521 293.958747,284.6521 C300.499596,284.6521 305.845715,279.322688 305.845715,272.712285 C305.845715,266.101881 300.499596,260.808724 293.958747,260.808724 L293.958747,260.808724 Z" id="Shape"></path>
                    <path d="M293.958747,0.283891696 C287.333422,0.283891696 281.999371,5.6495576 281.999371,12.2237068 C281.999371,15.3053393 283.254442,18.0848509 285.173252,20.2117815 C287.357558,22.6045785 290.434895,24.1756068 293.958747,24.1756068 C297.096424,24.1756068 299.968605,22.8946144 302.080503,20.8764473 C304.385488,18.6890925 305.845715,15.6678842 305.845715,12.2357916 C305.845715,5.6495576 300.499596,0.283891696 293.958747,0.283891696 L293.958747,0.283891696 Z" id="Shape"></path>
                    <path d="M293.958747,38.06108 C287.333422,38.06108 281.999371,43.4146611 281.999371,50.0008951 C281.999371,56.6112988 287.321354,61.9407102 293.958747,61.9407102 C300.499596,61.9407102 305.845715,56.6112988 305.845715,50.0008951 C305.845715,43.4267459 300.499596,38.06108 293.958747,38.06108 L293.958747,38.06108 Z" id="Shape"></path>
                    <path d="M293.958747,75.8382683 C287.333422,75.8382683 281.999371,81.1918494 281.999371,87.7780834 C281.999371,94.3884871 287.321354,99.7178985 293.958747,99.7178985 C300.499596,99.7178985 305.845715,94.3884871 305.845715,87.7780834 C305.845715,81.2039342 300.499596,75.8382683 293.958747,75.8382683 L293.958747,75.8382683 Z" id="Shape"></path>
                    <path d="M293.958747,113.651711 C287.333422,113.651711 281.999371,118.981123 281.999371,125.555272 C281.999371,132.20193 287.321354,137.495087 293.958747,137.495087 C300.499596,137.495087 305.845715,132.20193 305.845715,125.555272 C305.845715,118.981123 300.499596,113.651711 293.958747,113.651711 L293.958747,113.651711 Z" id="Shape"></path>
                    <path d="M293.958747,151.40473 C287.333422,151.40473 281.999371,156.758311 281.999371,163.344545 C281.999371,169.954949 287.321354,175.28436 293.958747,175.28436 C300.499596,175.28436 305.845715,169.954949 305.845715,163.344545 C305.845715,156.758311 300.499596,151.40473 293.958747,151.40473 L293.958747,151.40473 Z" id="Shape"></path>
                    <path d="M293.958747,189.181918 C287.333422,189.181918 281.999371,194.535499 281.999371,201.085479 C281.999371,207.720052 287.321354,213.049463 293.958747,213.049463 C300.499596,213.049463 305.845715,207.720052 305.845715,201.085479 C305.845715,194.535499 300.499596,189.181918 293.958747,189.181918 L293.958747,189.181918 Z" id="Shape"></path>
                    <path d="M293.958747,226.983276 C287.333422,226.983276 281.999371,232.312687 281.999371,238.886837 C281.999371,245.52141 287.321354,250.826652 293.958747,250.826652 C300.499596,250.826652 305.845715,245.533495 305.845715,238.886837 C305.845715,232.324772 300.499596,226.983276 293.958747,226.983276 L293.958747,226.983276 Z" id="Shape"></path>
                    <path d="M334.205486,260.808724 C327.58016,260.808724 322.24611,266.101881 322.24611,272.712285 C322.24611,279.322688 327.568092,284.6521 334.205486,284.6521 C340.770471,284.6521 346.128657,279.322688 346.128657,272.712285 C346.128657,266.101881 340.770471,260.808724 334.205486,260.808724 L334.205486,260.808724 Z" id="Shape"></path>
                    <path d="M334.205486,298.585912 C327.58016,298.585912 322.24611,303.879069 322.24611,310.501558 C322.24611,317.099877 327.568092,322.429288 334.205486,322.429288 C340.770471,322.429288 346.128657,317.099877 346.128657,310.501558 C346.128657,303.879069 340.770471,298.585912 334.205486,298.585912 L334.205486,298.585912 Z" id="Shape"></path>
                    <path d="M334.205486,336.363101 C331.345373,336.363101 328.823163,337.48699 326.759537,339.154697 C324.080444,341.317882 322.24611,344.520363 322.24611,348.266661 C322.24611,354.562859 327.097441,359.578065 333.300387,360.049373 C333.614154,360.085628 333.891718,360.242731 334.205486,360.242731 C340.770471,360.242731 346.128657,354.88915 346.128657,348.278746 C346.128657,341.668342 340.770471,336.363101 334.205486,336.363101 L334.205486,336.363101 Z" id="Shape"></path>
                    <path d="M334.205486,374.104034 C334.084806,374.104034 333.952058,374.176543 333.831378,374.176543 C327.387073,374.39407 322.258178,379.554294 322.258178,386.043849 C322.258178,390.563577 324.840727,394.334045 328.521463,396.388467 C330.235118,397.318999 332.105656,398.007834 334.217554,398.007834 C340.782539,398.007834 346.140725,392.654253 346.140725,386.043849 C346.140725,379.433446 340.770471,374.104034 334.205486,374.104034 L334.205486,374.104034 Z" id="Shape"></path>
                    <path d="M334.205486,38.06108 C330.838517,38.06108 327.857724,39.4266661 325.673418,41.6381906 C323.561521,43.7892909 322.24611,46.750075 322.24611,49.9888103 C322.24611,56.599214 327.568092,61.9286254 334.205486,61.9286254 C338.694777,61.9286254 342.459989,59.3424711 344.475343,55.6928515 C345.440782,53.9768052 346.128657,52.1157409 346.128657,49.9888103 C346.128657,43.4267459 340.770471,38.06108 334.205486,38.06108 L334.205486,38.06108 Z" id="Shape"></path>
                    <path d="M334.205486,75.8382683 C327.58016,75.8382683 322.24611,81.1918494 322.24611,87.7780834 C322.24611,94.3884871 327.568092,99.7178985 334.205486,99.7178985 C340.770471,99.7178985 346.128657,94.3884871 346.128657,87.7780834 C346.128657,81.2039342 340.770471,75.8382683 334.205486,75.8382683 L334.205486,75.8382683 Z" id="Shape"></path>
                    <path d="M334.205486,113.651711 C327.58016,113.651711 322.24611,118.981123 322.24611,125.555272 C322.24611,132.20193 327.568092,137.495087 334.205486,137.495087 C340.770471,137.495087 346.128657,132.20193 346.128657,125.555272 C346.128657,118.981123 340.770471,113.651711 334.205486,113.651711 L334.205486,113.651711 Z" id="Shape"></path>
                    <path d="M334.205486,151.40473 C327.58016,151.40473 322.24611,156.758311 322.24611,163.344545 C322.24611,169.954949 327.568092,175.28436 334.205486,175.28436 C340.770471,175.28436 346.128657,169.954949 346.128657,163.344545 C346.128657,156.758311 340.770471,151.40473 334.205486,151.40473 L334.205486,151.40473 Z" id="Shape"></path>
                    <path d="M334.205486,189.181918 C327.58016,189.181918 322.24611,194.535499 322.24611,201.085479 C322.24611,207.720052 327.568092,213.049463 334.205486,213.049463 C340.770471,213.049463 346.128657,207.720052 346.128657,201.085479 C346.128657,194.535499 340.770471,189.181918 334.205486,189.181918 L334.205486,189.181918 Z" id="Shape"></path>
                    <path d="M334.205486,226.983276 C327.58016,226.983276 322.24611,232.312687 322.24611,238.886837 C322.24611,245.52141 327.568092,250.826652 334.205486,250.826652 C340.770471,250.826652 346.128657,245.533495 346.128657,238.886837 C346.128657,232.324772 340.770471,226.983276 334.205486,226.983276 L334.205486,226.983276 Z" id="Shape"></path>
                    <ellipse id="Oval" cx="374.452224" cy="272.736454" rx="11.9111038" ry="11.9277303"></ellipse>
                    <ellipse id="Oval" cx="374.452224" cy="310.513642" rx="11.9111038" ry="11.9277303"></ellipse>
                    <ellipse id="Oval" cx="374.452224" cy="348.302916" rx="11.9231718" ry="11.9398151"></ellipse>
                    <ellipse id="Oval" cx="374.452224" cy="386.068019" rx="11.9352398" ry="11.9518999"></ellipse>
                    <path d="M374.452224,411.881223 C367.851035,411.881223 362.504917,417.210634 362.504917,423.821038 C362.504917,424.884503 362.84282,425.815035 363.096248,426.781822 C363.289336,427.410233 363.313472,428.086984 363.566899,428.679141 L363.542764,428.981261 L363.699647,429.416315 L364.170299,429.609673 L364.230639,429.609673 C366.282197,433.235123 370.023273,435.760853 374.47636,435.760853 C375.007352,435.760853 375.441799,435.531241 375.936587,435.482902 C381.825765,434.733642 386.435736,429.899709 386.435736,423.821038 C386.4116,417.222719 381.053414,411.881223 374.452224,411.881223 L374.452224,411.881223 Z" id="Shape"></path>
                    <path d="M374.452224,75.8382683 C367.851035,75.8382683 362.504917,81.1918494 362.504917,87.7780834 C362.504917,89.1799241 362.84282,90.5213405 363.313472,91.7660783 C364.966786,96.3824846 369.287126,99.7178985 374.452224,99.7178985 C374.645312,99.7178985 374.826332,99.6212199 375.007352,99.5970502 C381.318909,99.2828445 386.399532,94.2072146 386.399532,87.7780834 C386.4116,81.2039342 381.053414,75.8382683 374.452224,75.8382683 L374.452224,75.8382683 Z" id="Shape"></path>
                    <path d="M374.452224,113.651711 C367.851035,113.651711 362.504917,118.981123 362.504917,125.555272 C362.504917,132.20193 367.851035,137.495087 374.452224,137.495087 C381.053414,137.495087 386.4116,132.20193 386.4116,125.555272 C386.4116,118.981123 381.053414,113.651711 374.452224,113.651711 L374.452224,113.651711 Z" id="Shape"></path>
                    <ellipse id="Oval" cx="374.452224" cy="163.344545" rx="11.9231718" ry="11.9398151"></ellipse>
                    <path d="M374.452224,189.181918 C367.851035,189.181918 362.504917,194.535499 362.504917,201.085479 C362.504917,207.720052 367.851035,213.049463 374.452224,213.049463 C381.053414,213.049463 386.4116,207.720052 386.4116,201.085479 C386.4116,194.535499 381.053414,189.181918 374.452224,189.181918 L374.452224,189.181918 Z" id="Shape"></path>
                    <path d="M374.452224,226.983276 C367.851035,226.983276 362.504917,232.312687 362.504917,238.886837 C362.504917,245.52141 367.851035,250.826652 374.452224,250.826652 C381.053414,250.826652 386.4116,245.533495 386.4116,238.886837 C386.4116,232.324772 381.053414,226.983276 374.452224,226.983276 L374.452224,226.983276 Z" id="Shape"></path>
                    <path d="M414.735167,260.808724 C408.097774,260.808724 402.775791,266.101881 402.775791,272.712285 C402.775791,279.322688 408.097774,284.6521 414.735167,284.6521 C421.276016,284.6521 426.622135,279.322688 426.622135,272.712285 C426.622135,266.101881 421.263948,260.808724 414.735167,260.808724 L414.735167,260.808724 Z" id="Shape"></path>
                    <path d="M414.735167,298.585912 C408.097774,298.585912 402.775791,303.879069 402.775791,310.501558 C402.775791,317.099877 408.097774,322.429288 414.735167,322.429288 C421.276016,322.429288 426.622135,317.099877 426.622135,310.501558 C426.622135,303.879069 421.263948,298.585912 414.735167,298.585912 L414.735167,298.585912 Z" id="Shape"></path>
                    <path d="M414.735167,336.363101 C408.097774,336.363101 402.775791,341.656257 402.775791,348.266661 C402.775791,354.877065 408.097774,360.230646 414.735167,360.230646 C421.276016,360.230646 426.622135,354.877065 426.622135,348.266661 C426.622135,341.656257 421.263948,336.363101 414.735167,336.363101 L414.735167,336.363101 Z" id="Shape"></path>
                    <path d="M414.735167,374.104034 C408.097774,374.104034 402.775791,379.433446 402.775791,386.043849 C402.775791,392.654253 408.097774,398.007834 414.735167,398.007834 C421.276016,398.007834 426.622135,392.654253 426.622135,386.043849 C426.622135,379.433446 421.263948,374.104034 414.735167,374.104034 L414.735167,374.104034 Z" id="Shape"></path>
                    <path d="M414.735167,411.881223 C408.097774,411.881223 402.775791,417.210634 402.775791,423.821038 C402.775791,430.431441 408.097774,435.760853 414.735167,435.760853 C421.276016,435.760853 426.622135,430.431441 426.622135,423.821038 C426.622135,417.210634 421.263948,411.881223 414.735167,411.881223 L414.735167,411.881223 Z" id="Shape"></path>
                    <path d="M414.735167,449.670496 C409.847632,449.670496 405.732448,452.595025 403.873978,456.740123 C403.186103,458.238642 402.787859,459.85801 402.787859,461.598226 C402.787859,468.20863 408.109842,473.562211 414.747235,473.562211 C420.346781,473.562211 424.824005,469.574216 426.103211,464.305229 C426.284231,463.398866 426.622135,462.552928 426.622135,461.586141 C426.622135,455.036162 421.263948,449.670496 414.735167,449.670496 L414.735167,449.670496 Z" id="Shape"></path>
                    <path d="M414.735167,75.8382683 C408.097774,75.8382683 402.775791,81.1918494 402.775791,87.7780834 C402.775791,91.6693997 404.767009,94.980644 407.627122,97.1559139 C409.654544,98.6544332 412.01987,99.7058137 414.723099,99.7058137 C421.263948,99.7058137 426.610067,94.3764023 426.610067,87.7659986 C426.610067,85.4336258 425.741172,83.3671193 424.594713,81.4939702 C422.482815,78.1827259 418.934827,75.8382683 414.735167,75.8382683 L414.735167,75.8382683 Z" id="Shape"></path>
                    <path d="M414.735167,113.651711 C408.097774,113.651711 402.775791,118.981123 402.775791,125.555272 C402.775791,132.20193 408.097774,137.495087 414.735167,137.495087 C421.276016,137.495087 426.622135,132.20193 426.622135,125.555272 C426.622135,118.981123 421.263948,113.651711 414.735167,113.651711 L414.735167,113.651711 Z" id="Shape"></path>
                    <path d="M414.735167,151.40473 C408.097774,151.40473 402.775791,156.758311 402.775791,163.344545 C402.775791,169.954949 408.097774,175.28436 414.735167,175.28436 C421.276016,175.28436 426.622135,169.954949 426.622135,163.344545 C426.622135,156.758311 421.263948,151.40473 414.735167,151.40473 L414.735167,151.40473 Z" id="Shape"></path>
                    <path d="M414.735167,189.181918 C408.097774,189.181918 402.775791,194.535499 402.775791,201.085479 C402.775791,207.720052 408.097774,213.049463 414.735167,213.049463 C421.276016,213.049463 426.622135,207.720052 426.622135,201.085479 C426.622135,194.535499 421.263948,189.181918 414.735167,189.181918 L414.735167,189.181918 Z" id="Shape"></path>
                    <path d="M414.735167,226.983276 C408.097774,226.983276 402.775791,232.312687 402.775791,238.886837 C402.775791,245.52141 408.097774,250.826652 414.735167,250.826652 C421.276016,250.826652 426.622135,245.533495 426.622135,238.886837 C426.622135,232.324772 421.263948,226.983276 414.735167,226.983276 L414.735167,226.983276 Z" id="Shape"></path>
                    <path d="M454.969838,260.808724 C448.344513,260.808724 443.02253,266.101881 443.02253,272.712285 C443.02253,279.322688 448.332445,284.6521 454.969838,284.6521 C461.534823,284.6521 466.880942,279.322688 466.880942,272.712285 C466.880942,266.101881 461.534823,260.808724 454.969838,260.808724 L454.969838,260.808724 Z" id="Shape"></path>
                    <path d="M454.969838,298.585912 C448.344513,298.585912 443.02253,303.879069 443.02253,310.501558 C443.02253,317.099877 448.332445,322.429288 454.969838,322.429288 C461.534823,322.429288 466.880942,317.099877 466.880942,310.501558 C466.89301,303.879069 461.534823,298.585912 454.969838,298.585912 L454.969838,298.585912 Z" id="Shape"></path>
                    <path d="M454.969838,336.363101 C448.344513,336.363101 443.02253,341.656257 443.02253,348.266661 C443.02253,354.877065 448.332445,360.230646 454.969838,360.230646 C461.534823,360.230646 466.880942,354.877065 466.880942,348.266661 C466.880942,341.656257 461.534823,336.363101 454.969838,336.363101 L454.969838,336.363101 Z" id="Shape"></path>
                    <path d="M454.969838,374.104034 C448.344513,374.104034 443.02253,379.433446 443.02253,386.043849 C443.02253,392.654253 448.332445,398.007834 454.969838,398.007834 C461.534823,398.007834 466.880942,392.654253 466.880942,386.043849 C466.880942,379.433446 461.534823,374.104034 454.969838,374.104034 L454.969838,374.104034 Z" id="Shape"></path>
                    <path d="M454.969838,411.881223 C448.344513,411.881223 443.02253,417.210634 443.02253,423.821038 C443.02253,430.431441 448.332445,435.760853 454.969838,435.760853 C461.534823,435.760853 466.880942,430.431441 466.880942,423.821038 C466.880942,417.210634 461.534823,411.881223 454.969838,411.881223 L454.969838,411.881223 Z" id="Shape"></path>
                    <path d="M454.969838,449.670496 C448.344513,449.670496 443.02253,455.024077 443.02253,461.598226 C443.02253,468.20863 448.332445,473.562211 454.969838,473.562211 C461.534823,473.562211 466.880942,468.20863 466.880942,461.598226 C466.89301,455.036162 461.534823,449.670496 454.969838,449.670496 L454.969838,449.670496 Z" id="Shape"></path>
                    <path d="M454.969838,75.8382683 C449.490971,75.8382683 445.110292,79.5845666 443.674201,84.5635178 C443.372502,85.5907286 443.02253,86.6179394 443.02253,87.7780834 C443.02253,94.3884871 448.332445,99.7178985 454.969838,99.7178985 C457.492047,99.7178985 459.700489,98.7511119 461.595163,97.4096954 C464.720772,95.2585951 466.880942,91.862757 466.880942,87.7780834 C466.89301,81.2039342 461.534823,75.8382683 454.969838,75.8382683 L454.969838,75.8382683 Z" id="Shape"></path>
                    <path d="M454.969838,113.651711 C448.344513,113.651711 443.02253,118.981123 443.02253,125.555272 C443.02253,132.20193 448.332445,137.495087 454.969838,137.495087 C461.534823,137.495087 466.880942,132.20193 466.880942,125.555272 C466.89301,118.981123 461.534823,113.651711 454.969838,113.651711 L454.969838,113.651711 Z" id="Shape"></path>
                    <path d="M454.969838,151.40473 C448.344513,151.40473 443.02253,156.758311 443.02253,163.344545 C443.02253,169.954949 448.332445,175.28436 454.969838,175.28436 C461.534823,175.28436 466.880942,169.954949 466.880942,163.344545 C466.89301,156.758311 461.534823,151.40473 454.969838,151.40473 L454.969838,151.40473 Z" id="Shape"></path>
                    <path d="M454.969838,189.181918 C448.344513,189.181918 443.02253,194.535499 443.02253,201.085479 C443.02253,207.720052 448.332445,213.049463 454.969838,213.049463 C461.534823,213.049463 466.880942,207.720052 466.880942,201.085479 C466.89301,194.535499 461.534823,189.181918 454.969838,189.181918 L454.969838,189.181918 Z" id="Shape"></path>
                    <path d="M454.969838,226.983276 C448.344513,226.983276 443.02253,232.312687 443.02253,238.886837 C443.02253,245.52141 448.332445,250.826652 454.969838,250.826652 C461.534823,250.826652 466.880942,245.533495 466.880942,238.886837 C466.89301,232.324772 461.534823,226.983276 454.969838,226.983276 L454.969838,226.983276 Z" id="Shape"></path>
                    <ellipse id="Oval" cx="495.216576" cy="272.736454" rx="11.9111038" ry="11.9277303"></ellipse>
                    <ellipse id="Oval" cx="495.216576" cy="310.513642" rx="11.9111038" ry="11.9277303"></ellipse>
                    <ellipse id="Oval" cx="495.216576" cy="348.302916" rx="11.9231718" ry="11.9398151"></ellipse>
                    <ellipse id="Oval" cx="495.216576" cy="386.068019" rx="11.9352398" ry="11.9518999"></ellipse>
                    <ellipse id="Oval" cx="495.216576" cy="423.833123" rx="11.9231718" ry="11.9398151"></ellipse>
                    <ellipse id="Oval" cx="495.216576" cy="461.622396" rx="11.9352398" ry="11.9518999"></ellipse>
                    <path d="M495.216576,487.471854 C490.135954,487.471854 485.851818,490.66225 484.138164,495.109468 C483.607172,496.450885 483.269269,497.88898 483.269269,499.387499 C483.269269,505.997903 488.615387,511.363569 495.216576,511.363569 C499.983432,511.363569 504.050343,508.499463 505.957085,504.438959 C506.705301,502.91627 507.175952,501.224394 507.175952,499.387499 C507.175952,492.81335 501.817766,487.471854 495.216576,487.471854 L495.216576,487.471854 Z" id="Shape"></path>
                    <path d="M495.216576,113.651711 C488.615387,113.651711 483.269269,118.981123 483.269269,125.555272 C483.269269,132.20193 488.615387,137.495087 495.216576,137.495087 C501.817766,137.495087 507.163884,132.20193 507.163884,125.555272 C507.175952,118.981123 501.817766,113.651711 495.216576,113.651711 L495.216576,113.651711 Z" id="Shape"></path>
                    <path d="M495.216576,189.181918 C488.615387,189.181918 483.269269,194.535499 483.269269,201.085479 C483.269269,207.720052 488.615387,213.049463 495.216576,213.049463 C501.817766,213.049463 507.163884,207.720052 507.163884,201.085479 C507.175952,194.535499 501.817766,189.181918 495.216576,189.181918 L495.216576,189.181918 Z" id="Shape"></path>
                    <path d="M495.216576,226.983276 C488.615387,226.983276 483.269269,232.312687 483.269269,238.886837 C483.269269,245.52141 488.615387,250.826652 495.216576,250.826652 C501.817766,250.826652 507.163884,245.533495 507.163884,238.886837 C507.175952,232.324772 501.817766,226.983276 495.216576,226.983276 L495.216576,226.983276 Z" id="Shape"></path>
                    <path d="M535.499519,260.808724 C528.89833,260.808724 523.540143,266.101881 523.540143,272.712285 C523.540143,279.322688 528.89833,284.6521 535.499519,284.6521 C542.064504,284.6521 547.410623,279.322688 547.410623,272.712285 C547.410623,266.101881 542.064504,260.808724 535.499519,260.808724 L535.499519,260.808724 Z" id="Shape"></path>
                    <path d="M535.499519,298.585912 C528.89833,298.585912 523.540143,303.879069 523.540143,310.501558 C523.540143,317.099877 528.89833,322.429288 535.499519,322.429288 C542.064504,322.429288 547.410623,317.099877 547.410623,310.501558 C547.422691,303.879069 542.064504,298.585912 535.499519,298.585912 L535.499519,298.585912 Z" id="Shape"></path>
                    <path d="M535.499519,336.363101 C528.89833,336.363101 523.540143,341.656257 523.540143,348.266661 C523.540143,354.877065 528.89833,360.230646 535.499519,360.230646 C542.064504,360.230646 547.410623,354.877065 547.410623,348.266661 C547.410623,341.656257 542.064504,336.363101 535.499519,336.363101 L535.499519,336.363101 Z" id="Shape"></path>
                    <path d="M577.59266,336.363101 C570.991471,336.363101 565.633284,341.656257 565.633284,348.266661 C565.633284,354.877065 570.991471,360.230646 577.59266,360.230646 C584.157645,360.230646 589.503764,354.877065 589.503764,348.266661 C589.503764,341.656257 584.145577,336.363101 577.59266,336.363101 L577.59266,336.363101 Z" id="Shape"></path>
                    <path d="M535.499519,374.104034 C528.89833,374.104034 523.540143,379.433446 523.540143,386.043849 C523.540143,392.654253 528.89833,398.007834 535.499519,398.007834 C542.064504,398.007834 547.410623,392.654253 547.410623,386.043849 C547.410623,379.433446 542.064504,374.104034 535.499519,374.104034 L535.499519,374.104034 Z" id="Shape"></path>
                    <path d="M535.499519,411.881223 C528.89833,411.881223 523.540143,417.210634 523.540143,423.821038 C523.540143,430.431441 528.89833,435.760853 535.499519,435.760853 C542.064504,435.760853 547.410623,430.431441 547.410623,423.821038 C547.410623,417.210634 542.064504,411.881223 535.499519,411.881223 L535.499519,411.881223 Z" id="Shape"></path>
                    <path d="M535.499519,449.670496 C528.89833,449.670496 523.540143,455.024077 523.540143,461.598226 C523.540143,468.20863 528.89833,473.562211 535.499519,473.562211 C542.064504,473.562211 547.410623,468.20863 547.410623,461.598226 C547.422691,455.036162 542.064504,449.670496 535.499519,449.670496 L535.499519,449.670496 Z" id="Shape"></path>
                    <path d="M535.499519,487.471854 C528.89833,487.471854 523.540143,492.801265 523.540143,499.375414 C523.540143,505.985818 528.89833,511.351484 535.499519,511.351484 C542.064504,511.351484 547.410623,505.985818 547.410623,499.375414 C547.422691,492.81335 542.064504,487.471854 535.499519,487.471854 L535.499519,487.471854 Z" id="Shape"></path>
                    <path d="M535.499519,189.181918 C531.577423,189.181918 528.270795,191.175916 526.098557,194.076275 C524.602126,196.070273 523.540143,198.402646 523.540143,201.097563 C523.540143,207.732137 528.89833,213.061548 535.499519,213.061548 C541.099065,213.061548 545.612493,209.073553 546.879631,203.804566 C547.072719,202.898204 547.410623,202.052265 547.410623,201.097563 C547.422691,194.535499 542.064504,189.181918 535.499519,189.181918 L535.499519,189.181918 Z" id="Shape"></path>
                    <path d="M535.499519,226.983276 C528.89833,226.983276 523.540143,232.312687 523.540143,238.886837 C523.540143,245.52141 528.89833,250.826652 535.499519,250.826652 C542.064504,250.826652 547.410623,245.533495 547.410623,238.886837 C547.422691,232.324772 542.064504,226.983276 535.499519,226.983276 L535.499519,226.983276 Z" id="Shape"></path>
                    <path d="M575.746258,374.104034 C575.335946,374.104034 574.998043,374.297392 574.587731,374.333646 C568.517533,374.962057 563.786882,379.84433 563.786882,386.055934 C563.786882,392.666338 569.096797,398.019919 575.73419,398.019919 C580.307957,398.019919 584.169713,395.337086 586.160931,391.542448 C587.029826,389.886826 587.645294,388.086186 587.645294,386.055934 C587.66943,379.445531 582.311243,374.104034 575.746258,374.104034 L575.746258,374.104034 Z" id="Shape"></path>
                    <path d="M575.746258,411.881223 C569.108865,411.881223 563.79895,417.210634 563.79895,423.821038 C563.79895,430.431441 569.108865,435.760853 575.746258,435.760853 C582.311243,435.760853 587.657362,430.431441 587.657362,423.821038 C587.657362,417.210634 582.311243,411.881223 575.746258,411.881223 L575.746258,411.881223 Z" id="Shape"></path>
                    <path d="M575.746258,449.670496 C569.108865,449.670496 563.79895,455.024077 563.79895,461.598226 C563.79895,468.20863 569.108865,473.562211 575.746258,473.562211 C582.311243,473.562211 587.657362,468.20863 587.657362,461.598226 C587.66943,455.036162 582.311243,449.670496 575.746258,449.670496 L575.746258,449.670496 Z" id="Shape"></path>
                    <path d="M575.746258,487.471854 C569.108865,487.471854 563.79895,492.801265 563.79895,499.375414 C563.79895,505.985818 569.108865,511.351484 575.746258,511.351484 C582.311243,511.351484 587.657362,505.985818 587.657362,499.375414 C587.66943,492.81335 582.311243,487.471854 575.746258,487.471854 L575.746258,487.471854 Z" id="Shape"></path>
                    <path d="M575.746258,525.261127 C572.596513,525.261127 569.79674,526.505865 567.684842,528.499862 C565.319517,530.650962 563.79895,533.708425 563.79895,537.164687 C563.79895,543.775091 569.108865,549.140757 575.746258,549.140757 C582.311243,549.140757 587.657362,543.775091 587.657362,537.164687 C587.657362,536.802142 587.476342,536.475852 587.440138,536.113307 C586.88501,530.058806 581.937135,525.261127 575.746258,525.261127 L575.746258,525.261127 Z" id="Shape"></path>
                    <path d="M573.851584,212.686918 C574.479119,212.783597 575.070451,213.061548 575.746258,213.061548 C582.311243,213.061548 587.657362,207.732137 587.657362,201.097563 C587.657362,194.547584 582.311243,189.194003 575.746258,189.194003 C569.108865,189.194003 563.79895,194.547584 563.79895,201.097563 C563.79895,204.674674 565.452264,207.792561 567.93827,210.004086 C569.55538,211.430096 571.582802,212.300204 573.851584,212.686918 L573.851584,212.686918 Z" id="Shape"></path>
                    <path d="M616.029201,411.881223 C609.391807,411.881223 604.069825,417.210634 604.069825,423.821038 C604.069825,424.098989 604.202573,424.316516 604.238777,424.594467 C604.262913,424.969097 604.504272,425.259133 604.57668,425.621678 L604.793904,426.491786 L604.950788,426.745567 C605.795547,429.863454 607.533337,432.570457 610.308974,434.105231 C612.046765,435.059933 613.917303,435.760853 616.041269,435.760853 C622.606254,435.760853 627.916168,430.431441 627.916168,423.821038 C627.916168,417.210634 622.594186,411.881223 616.029201,411.881223 L616.029201,411.881223 Z" id="Shape"></path>
                    <path d="M616.029201,449.670496 C609.391807,449.670496 604.069825,455.024077 604.069825,461.598226 C604.069825,468.20863 609.391807,473.562211 616.029201,473.562211 C622.594186,473.562211 627.9041,468.20863 627.9041,461.598226 C627.9041,455.036162 622.594186,449.670496 616.029201,449.670496 L616.029201,449.670496 Z" id="Shape"></path>
                    <path d="M616.029201,487.471854 C609.391807,487.471854 604.069825,492.801265 604.069825,499.375414 C604.069825,505.985818 609.391807,511.351484 616.029201,511.351484 C622.594186,511.351484 627.9041,505.985818 627.9041,499.375414 C627.9041,492.81335 622.594186,487.471854 616.029201,487.471854 L616.029201,487.471854 Z" id="Shape"></path>
                    <path d="M616.029201,525.261127 C610.417586,525.261127 605.964499,529.152443 604.673224,534.300582 C604.419796,535.231114 604.069825,536.125392 604.069825,537.152603 C604.069825,543.763006 609.391807,549.128672 616.029201,549.128672 C622.594186,549.128672 627.9041,543.763006 627.9041,537.152603 C627.9041,532.983335 625.611183,529.454564 622.340758,527.339718 C620.506424,526.14332 618.418662,525.261127 616.029201,525.261127 L616.029201,525.261127 Z" id="Shape"></path>
                    <path d="M659.884268,450.419755 C658.725741,450.020956 657.555146,449.670496 656.275939,449.670496 C653.126194,449.670496 650.326421,450.939403 648.214524,452.909231 C645.849198,455.096586 644.316564,458.154049 644.316564,461.610311 C644.316564,468.220715 649.67475,473.574296 656.275939,473.574296 C662.804721,473.574296 668.162907,468.220715 668.162907,461.610311 C668.162907,456.305069 664.639055,451.942444 659.884268,450.419755 L659.884268,450.419755 Z" id="Shape"></path>
                    <path d="M656.275939,487.471854 C649.67475,487.471854 644.316564,492.801265 644.316564,499.375414 C644.316564,505.985818 649.67475,511.351484 656.275939,511.351484 C662.804721,511.351484 668.162907,505.985818 668.162907,499.375414 C668.162907,492.81335 662.804721,487.471854 656.275939,487.471854 L656.275939,487.471854 Z" id="Shape"></path>
                    <ellipse id="Oval" cx="696.486474" cy="461.622396" rx="11.9352398" ry="11.9518999"></ellipse>
                    <ellipse id="Oval" cx="696.486474" cy="499.423754" rx="11.9231718" ry="11.9398151"></ellipse>
                    <path d="M696.486474,525.261127 C689.885285,525.261127 684.539166,530.578453 684.539166,537.152603 C684.539166,537.962286 684.840866,538.687376 684.99775,539.424551 C685.963189,544.258485 689.704265,547.908104 694.555596,548.741958 C695.219335,548.838636 695.810667,549.116587 696.486474,549.116587 C703.087663,549.116587 708.433782,543.750922 708.433782,537.140518 C708.433782,530.590538 703.087663,525.261127 696.486474,525.261127 L696.486474,525.261127 Z" id="Shape"></path>
                    <ellipse id="Oval" cx="696.486474" cy="574.97813" rx="11.9231718" ry="11.9398151"></ellipse>
                    <path d="M736.769417,411.881223 C730.168227,411.881223 724.822109,417.210634 724.822109,423.821038 C724.822109,429.935963 729.456216,434.721557 735.333326,435.482902 C735.840182,435.543326 736.274629,435.760853 736.769417,435.760853 C742.175875,435.760853 746.568623,432.111233 748.040917,427.180621 C748.378821,426.092986 748.728792,424.993267 748.728792,423.821038 C748.716724,417.222719 743.370606,411.881223 736.769417,411.881223 L736.769417,411.881223 Z" id="Shape"></path>
                    <ellipse id="Oval" cx="736.769417" cy="461.622396" rx="11.9352398" ry="11.9518999"></ellipse>
                    <ellipse id="Oval" cx="736.769417" cy="499.423754" rx="11.9231718" ry="11.9398151"></ellipse>
                    <path d="M736.769417,525.261127 C734.307547,525.261127 732.159445,526.155405 730.264771,527.436397 C727.054687,529.599582 724.822109,533.055844 724.822109,537.164687 L724.822109,537.237196 C724.882449,543.811346 730.204431,549.140757 736.769417,549.140757 C743.370606,549.140757 748.716724,543.775091 748.716724,537.164687 C748.716724,530.590538 743.370606,525.261127 736.769417,525.261127 L736.769417,525.261127 Z" id="Shape"></path>
                    <path d="M777.052359,336.363101 C770.45117,336.363101 765.092984,341.656257 765.092984,348.266661 C765.092984,354.877065 770.45117,360.230646 777.052359,360.230646 C777.571283,360.230646 778.00573,359.976864 778.536722,359.928525 C782.060574,359.457217 784.981027,357.523643 786.851565,354.647453 C788.070432,352.786389 788.939327,350.659458 788.939327,348.266661 C788.939327,341.668342 783.581141,336.363101 777.052359,336.363101 L777.052359,336.363101 Z" id="Shape"></path>
                    <path d="M777.052359,374.104034 C773.335419,374.104034 770.137402,375.880505 767.953097,378.527083 C766.239442,380.617759 765.092984,383.143489 765.092984,386.043849 C765.092984,388.56958 766.058423,390.781104 767.361765,392.714677 C769.546071,395.832564 772.97338,398.007834 777.052359,398.007834 C783.581141,398.007834 788.939327,392.654253 788.939327,386.043849 C788.939327,379.433446 783.581141,374.104034 777.052359,374.104034 L777.052359,374.104034 Z" id="Shape"></path>
                    <path d="M777.052359,411.881223 C770.45117,411.881223 765.092984,417.210634 765.092984,423.821038 C765.092984,430.431441 770.45117,435.760853 777.052359,435.760853 C783.581141,435.760853 788.939327,430.431441 788.939327,423.821038 C788.939327,417.210634 783.581141,411.881223 777.052359,411.881223 L777.052359,411.881223 Z" id="Shape"></path>
                    <path d="M777.052359,449.670496 C770.45117,449.670496 765.092984,455.024077 765.092984,461.598226 C765.092984,464.220635 766.130831,466.516753 767.554853,468.522835 C769.739159,471.507789 773.069923,473.562211 777.052359,473.562211 C780.962387,473.562211 784.269016,471.507789 786.441254,468.58326 C787.90148,466.589262 788.939327,464.256889 788.939327,461.598226 C788.939327,455.036162 783.581141,449.670496 777.052359,449.670496 L777.052359,449.670496 Z" id="Shape"></path>
                    <path d="M817.323234,336.363101 C810.722045,336.363101 805.375926,341.656257 805.375926,348.266661 C805.375926,349.293872 805.71383,350.18815 805.967258,351.130767 C807.2706,356.303075 811.759892,360.230646 817.323234,360.230646 C823.864083,360.230646 829.210202,354.877065 829.210202,348.266661 C829.210202,348.266661 829.186066,348.194152 829.186066,348.169982 C829.149862,341.595833 823.827879,336.363101 817.323234,336.363101 L817.323234,336.363101 Z" id="Shape"></path>
                    <path d="M817.323234,374.104034 C810.722045,374.104034 805.375926,379.433446 805.375926,386.043849 C805.375926,392.654253 810.722045,398.007834 817.323234,398.007834 C823.864083,398.007834 829.210202,392.654253 829.210202,386.043849 C829.210202,379.433446 823.864083,374.104034 817.323234,374.104034 L817.323234,374.104034 Z" id="Shape"></path>
                    <path d="M817.323234,411.881223 C810.722045,411.881223 805.375926,417.210634 805.375926,423.821038 C805.375926,430.431441 810.722045,435.760853 817.323234,435.760853 C823.864083,435.760853 829.210202,430.431441 829.210202,423.821038 C829.210202,417.210634 823.864083,411.881223 817.323234,411.881223 L817.323234,411.881223 Z" id="Shape"></path>
                    <path d="M817.323234,449.670496 C810.722045,449.670496 805.375926,455.024077 805.375926,461.598226 C805.375926,463.966853 806.244821,466.057529 807.427484,467.918594 C809.587654,471.217753 813.099438,473.562211 817.323234,473.562211 C823.864083,473.562211 829.210202,468.20863 829.210202,461.598226 C829.210202,457.803588 827.315528,454.589023 824.576095,452.365414 C822.548673,450.794385 820.086803,449.670496 817.323234,449.670496 L817.323234,449.670496 Z" id="Shape"></path>
                    <path d="M857.606177,374.104034 C850.944648,374.104034 845.658869,379.433446 845.658869,386.043849 C845.658869,392.49715 850.727424,397.669459 857.135525,397.911156 C857.304477,397.911156 857.449293,398.007834 857.606177,398.007834 C864.147026,398.007834 869.493145,392.654253 869.493145,386.043849 C869.493145,383.711477 868.660453,381.681225 867.501927,379.832245 C865.377961,376.484746 861.829972,374.104034 857.606177,374.104034 L857.606177,374.104034 Z" id="Shape"></path>
                    <path d="M858.776772,412.147089 L858.523344,411.482423 L857.968216,410.358534 L857.932012,410.890266 L857.738925,411.69995 L857.811333,411.917477 C857.714789,411.917477 857.642381,411.881223 857.582041,411.881223 C857.328613,411.881223 857.147593,412.014156 856.930369,412.014156 L855.96493,411.881223 L855.397735,411.917477 L855.771843,412.147089 L856.02527,412.207513 C855.433939,412.304192 854.902947,412.461295 854.335752,412.545888 L854.311616,412.545888 L854.275412,412.582143 C853.780625,412.642567 853.285837,412.666737 852.85139,412.848009 C848.579322,414.648649 845.622665,418.902511 845.622665,423.821038 C845.622665,428.558292 848.422438,432.582542 852.42901,434.516115 C853.98578,435.265375 855.699435,435.772938 857.569973,435.772938 C864.110822,435.772938 869.456941,430.443526 869.456941,423.833123 C869.493145,417.657773 864.726289,412.739246 858.776772,412.147089 L858.776772,412.147089 Z" id="Shape"></path>
                </g>
            </g>
        </g>
    </g>
</svg>