<?xml version="1.0" encoding="UTF-8" standalone="no"?>
<svg width="40px" height="40px" viewBox="0 0 40 40" version="1.1" xmlns="http://www.w3.org/2000/svg" xmlns:xlink="http://www.w3.org/1999/xlink">
    <!-- Generator: Sketch 3.7.2 (28276) - http://www.bohemiancoding.com/sketch -->
    <title>Google</title>
    <desc>Created with Sketch.</desc>
    <defs></defs>
    <g id="web" stroke="none" stroke-width="1" fill="none" fill-rule="evenodd">
        <g id="main" transform="translate(-1124.000000, -2382.000000)">
            <g id="Google" transform="translate(1125.000000, 2383.000000)">
                <g>
                    <path d="M19,38 C29.4934102,38 38,29.4934102 38,19 C38,8.50658975 29.4934102,0 19,0 C8.50658975,0 0,8.50658975 0,19 C0,29.4934102 8.50658975,38 19,38 Z" id="Background" stroke="#FFFFFF"></path>
                    <path d="M18.9,18 L18.9,20.4 L23,20.4 C22.8,21.4 21.8,23.4 19,23.4 C16.6,23.4 14.7,21.4 14.7,19 C14.7,16.6 16.7,14.6 19,14.6 C20.4,14.6 21.3,15.2 21.8,15.7 L23.7,13.9 C22.5,12.7 20.9,12 19,12 C15.1,12 12,15.1 12,19 C12,22.9 15.1,26 19,26 C23,26 25.7,23.2 25.7,19.2 C25.7,18.7 25.7,18.4 25.6,18 L18.9,18 L18.9,18 L18.9,18 Z" id="Shape" fill="#FFFFFF"></path>
                </g>
            </g>
        </g>
    </g>
</svg>