<?xml version="1.0" encoding="UTF-8" standalone="no"?>
<svg width="40px" height="40px" viewBox="0 0 40 40" version="1.1" xmlns="http://www.w3.org/2000/svg" xmlns:xlink="http://www.w3.org/1999/xlink">
    <!-- Generator: Sketch 3.7.2 (28276) - http://www.bohemiancoding.com/sketch -->
    <title>Twitter</title>
    <desc>Created with Sketch.</desc>
    <defs></defs>
    <g id="web" stroke="none" stroke-width="1" fill="none" fill-rule="evenodd">
        <g id="main" transform="translate(-1072.000000, -2382.000000)">
            <g id="Twitter" transform="translate(1073.000000, 2383.000000)">
                <g>
                    <path d="M38,18.9999289 C38,29.4933992 29.4934515,38 19,38 C8.50654849,38 0,29.4933992 0,18.9999289 C0,8.50660079 8.50654849,0 19,0 C29.4934515,0 38,8.50660079 38,18.9999289 Z" id="Background" stroke="#FFFFFF"></path>
                    <path d="M27,14.5 C26.4,14.8 25.8,14.9 25.1,15 C25.8,14.6 26.3,14 26.5,13.2 C25.9,13.6 25.2,13.8 24.4,14 C23.8,13.4 22.9,13 22,13 C20.3,13 18.8,14.5 18.8,16.3 C18.8,16.6 18.8,16.8 18.9,17 C16.2,16.9 13.7,15.6 12.1,13.6 C11.8,14.1 11.7,14.6 11.7,15.3 C11.7,16.4 12.3,17.4 13.2,18 C12.7,18 12.2,17.8 11.7,17.6 L11.7,17.6 C11.7,19.2 12.8,20.5 14.3,20.8 C14,20.9 13.7,20.9 13.4,20.9 C13.2,20.9 13,20.9 12.8,20.8 C13.2,22.1 14.4,23.1 15.9,23.1 C14.8,24 13.4,24.5 11.8,24.5 L11,24.5 C12.5,25.4 14.2,26 16,26 C22,26 25.3,21 25.3,16.7 L25.3,16.3 C26,15.8 26.6,15.2 27,14.5 L27,14.5 Z" id="Shape" fill="#FFFFFF"></path>
                </g>
            </g>
        </g>
    </g>
</svg>